Ruda-Black.ufo
<glyph name="quotedbl" format="2">
  <advance width="409"/>
  <unicode hex="0022"/>
  <outline>
    <contour>
      <point x="267" y="448" type="line"/>
      <point x="356" y="448" type="line"/>
      <point x="375" y="680" type="line"/>
      <point x="375" y="731" type="line"/>
      <point x="250" y="731" type="line"/>
      <point x="250" y="680" type="line"/>
    </contour>
    <contour>
      <point x="51" y="448" type="line"/>
      <point x="140" y="448" type="line"/>
      <point x="159" y="680" type="line"/>
      <point x="159" y="731" type="line"/>
      <point x="34" y="731" type="line"/>
      <point x="34" y="680" type="line"/>
    </contour>
  </outline>
</glyph>
<glyph name="percent" format="2">
  <advance width="823"/>
  <unicode hex="0025"/>
  <outline>
    <contour>
      <point x="142" y="-9" type="line"/>
      <point x="280" y="-9" type="line"/>
      <point x="458" y="343" type="line"/>
      <point x="663" y="733" type="line"/>
      <point x="526" y="733" type="line"/>
      <point x="369" y="406" type="line"/>
    </contour>
    <contour>
      <point x="201" y="390" type="curve" smooth="yes"/>
      <point x="285" y="390"/>
      <point x="371" y="436"/>
      <point x="371" y="561" type="curve" smooth="yes"/>
      <point x="371" y="685"/>
      <point x="285" y="730"/>
      <point x="201" y="730" type="curve" smooth="yes"/>
      <point x="116" y="730"/>
      <point x="31" y="685"/>
      <point x="31" y="561" type="curve" smooth="yes"/>
      <point x="31" y="436"/>
      <point x="116" y="390"/>
    </contour>
    <contour>
      <point x="201" y="506" type="curve" smooth="yes"/>
      <point x="170" y="506"/>
      <point x="149" y="519"/>
      <point x="149" y="561" type="curve" smooth="yes"/>
      <point x="149" y="601"/>
      <point x="170" y="614"/>
      <point x="201" y="614" type="curve" smooth="yes"/>
      <point x="232" y="614"/>
      <point x="253" y="601"/>
      <point x="253" y="561" type="curve" smooth="yes"/>
      <point x="253" y="519"/>
      <point x="232" y="506"/>
    </contour>
    <contour>
      <point x="622" y="-13" type="curve" smooth="yes"/>
      <point x="706" y="-13"/>
      <point x="792" y="33"/>
      <point x="792" y="158" type="curve" smooth="yes"/>
      <point x="792" y="282"/>
      <point x="706" y="327"/>
      <point x="622" y="327" type="curve" smooth="yes"/>
      <point x="537" y="327"/>
      <point x="452" y="282"/>
      <point x="452" y="158" type="curve" smooth="yes"/>
      <point x="452" y="33"/>
      <point x="537" y="-13"/>
    </contour>
    <contour>
      <point x="622" y="103" type="curve" smooth="yes"/>
      <point x="591" y="103"/>
      <point x="570" y="116"/>
      <point x="570" y="158" type="curve" smooth="yes"/>
      <point x="570" y="198"/>
      <point x="591" y="211"/>
      <point x="622" y="211" type="curve" smooth="yes"/>
      <point x="653" y="211"/>
      <point x="674" y="198"/>
      <point x="674" y="158" type="curve" smooth="yes"/>
      <point x="674" y="116"/>
      <point x="653" y="103"/>
    </contour>
  </outline>
</glyph>
<glyph name="ampersand" format="2">
  <advance width="702"/>
  <unicode hex="0026"/>
  <outline>
    <contour>
      <point x="271" y="-13" type="curve" smooth="yes"/>
      <point x="361" y="-13"/>
      <point x="436" y="22"/>
      <point x="499" y="78" type="curve"/>
      <point x="522" y="37"/>
      <point x="538" y="1"/>
      <point x="543" y="-13" type="curve"/>
      <point x="697" y="-8" type="line"/>
      <point x="679" y="43"/>
      <point x="650" y="115"/>
      <point x="598" y="192" type="curve"/>
      <point x="657" y="280"/>
      <point x="693" y="371"/>
      <point x="693" y="371" type="curve"/>
      <point x="560" y="408" type="line"/>
      <point x="560" y="408"/>
      <point x="539" y="354"/>
      <point x="508" y="297" type="curve"/>
      <point x="482" y="323"/>
      <point x="449" y="353"/>
      <point x="411" y="380" type="curve"/>
      <point x="456" y="409"/>
      <point x="508" y="458"/>
      <point x="508" y="537" type="curve" smooth="yes"/>
      <point x="508" y="626"/>
      <point x="444" y="716"/>
      <point x="291" y="716" type="curve" smooth="yes"/>
      <point x="147" y="716"/>
      <point x="68" y="635"/>
      <point x="68" y="533" type="curve" smooth="yes"/>
      <point x="68" y="465"/>
      <point x="105" y="419"/>
      <point x="145" y="387" type="curve"/>
      <point x="82" y="355"/>
      <point x="17" y="296"/>
      <point x="17" y="201" type="curve" smooth="yes"/>
      <point x="17" y="97"/>
      <point x="110" y="-13"/>
    </contour>
    <contour>
      <point x="274" y="106" type="curve" smooth="yes"/>
      <point x="216" y="106"/>
      <point x="178" y="142"/>
      <point x="178" y="200" type="curve" smooth="yes"/>
      <point x="178" y="250"/>
      <point x="222" y="292"/>
      <point x="282" y="315" type="curve"/>
      <point x="332" y="285"/>
      <point x="383" y="241"/>
      <point x="429" y="187" type="curve"/>
      <point x="388" y="141"/>
      <point x="329" y="106"/>
    </contour>
    <contour>
      <point x="287" y="449" type="curve"/>
      <point x="246" y="470"/>
      <point x="225" y="496"/>
      <point x="225" y="538" type="curve" smooth="yes"/>
      <point x="225" y="575"/>
      <point x="242" y="601"/>
      <point x="287" y="601" type="curve" smooth="yes"/>
      <point x="333" y="601"/>
      <point x="350" y="572"/>
      <point x="350" y="539" type="curve" smooth="yes"/>
      <point x="350" y="495"/>
      <point x="322" y="467"/>
    </contour>
  </outline>
</glyph>
<glyph name="quotesingle" format="2">
  <advance width="213"/>
  <unicode hex="0027"/>
  <outline>
    <contour>
      <point x="61" y="452" type="line"/>
      <point x="150" y="452" type="line"/>
      <point x="169" y="684" type="line"/>
      <point x="169" y="735" type="line"/>
      <point x="44" y="735" type="line"/>
      <point x="44" y="684" type="line"/>
    </contour>
  </outline>
</glyph>
<glyph name="parenright" format="2">
  <advance width="349"/>
  <unicode hex="0029"/>
  <outline>
    <contour>
      <point x="75" y="-124" type="line"/>
      <point x="191" y="-61"/>
      <point x="302" y="77"/>
      <point x="302" y="344" type="curve" smooth="yes"/>
      <point x="302" y="615"/>
      <point x="191" y="749"/>
      <point x="75" y="813" type="curve"/>
      <point x="9" y="725" type="line"/>
      <point x="99" y="664"/>
      <point x="144" y="525"/>
      <point x="144" y="344" type="curve" smooth="yes"/>
      <point x="144" y="164"/>
      <point x="99" y="27"/>
      <point x="9" y="-36" type="curve"/>
    </contour>
  </outline>
</glyph>
<glyph name="asterisk" format="2">
  <advance width="416"/>
  <unicode hex="002A"/>
  <outline>
    <contour>
      <point x="132" y="346" type="line"/>
      <point x="145" y="363" type="line"/>
      <point x="207" y="466" type="line"/>
      <point x="267" y="364" type="line"/>
      <point x="280" y="347" type="line"/>
      <point x="375" y="428" type="line"/>
      <point x="360" y="443" type="line"/>
      <point x="270" y="520" type="line"/>
      <point x="381" y="533" type="line"/>
      <point x="402" y="539" type="line"/>
      <point x="365" y="657" type="line"/>
      <point x="344" y="651" type="line"/>
      <point x="251" y="604" type="line"/>
      <point x="270" y="704" type="line"/>
      <point x="270" y="725" type="line"/>
      <point x="146" y="725" type="line"/>
      <point x="146" y="704" type="line"/>
      <point x="165" y="604" type="line"/>
      <point x="72" y="651" type="line"/>
      <point x="50" y="658" type="line"/>
      <point x="14" y="539" type="line"/>
      <point x="34" y="533" type="line"/>
      <point x="142" y="520" type="line"/>
      <point x="55" y="442" type="line"/>
      <point x="41" y="427" type="line"/>
    </contour>
  </outline>
</glyph>
<glyph name="period" format="2">
  <advance width="283"/>
  <unicode hex="002E"/>
  <outline>
    <contour>
      <point x="54" y="0" type="line"/>
      <point x="229" y="0" type="line"/>
      <point x="229" y="137" type="line"/>
      <point x="54" y="137" type="line"/>
    </contour>
  </outline>
</glyph>
<glyph name="slash" format="2">
  <advance width="490"/>
  <unicode hex="002F"/>
  <outline>
    <contour>
      <point x="-18" y="-98" type="line"/>
      <point x="127" y="-98" type="line"/>
      <point x="294" y="281" type="line"/>
      <point x="490" y="703" type="line"/>
      <point x="344" y="703" type="line"/>
      <point x="183" y="333" type="line"/>
    </contour>
  </outline>
</glyph>
<glyph name="zero" format="2">
  <advance width="614"/>
  <unicode hex="0030"/>
  <outline>
    <contour>
      <point x="307" y="-13" type="curve" smooth="yes"/>
      <point x="459" y="-13"/>
      <point x="576" y="56"/>
      <point x="576" y="352" type="curve" smooth="yes"/>
      <point x="576" y="647"/>
      <point x="459" y="716"/>
      <point x="307" y="716" type="curve" smooth="yes"/>
      <point x="156" y="716"/>
      <point x="38" y="647"/>
      <point x="38" y="352" type="curve" smooth="yes"/>
      <point x="38" y="56"/>
      <point x="156" y="-13"/>
    </contour>
    <contour>
      <point x="308" y="118" type="curve" smooth="yes"/>
      <point x="235" y="118"/>
      <point x="198" y="164"/>
      <point x="198" y="354" type="curve" smooth="yes"/>
      <point x="198" y="546"/>
      <point x="237" y="585"/>
      <point x="307" y="585" type="curve" smooth="yes"/>
      <point x="376" y="585"/>
      <point x="417" y="546"/>
      <point x="417" y="352" type="curve" smooth="yes"/>
      <point x="417" y="161"/>
      <point x="380" y="118"/>
    </contour>
  </outline>
</glyph>
<glyph name="three" format="2">
  <advance width="614"/>
  <unicode hex="0033"/>
  <outline>
    <contour>
      <point x="300" y="-13" type="curve" smooth="yes"/>
      <point x="485" y="-13"/>
      <point x="552" y="88"/>
      <point x="552" y="208" type="curve" smooth="yes"/>
      <point x="552" y="306"/>
      <point x="506" y="352"/>
      <point x="455" y="376" type="curve"/>
      <point x="455" y="382" type="line"/>
      <point x="493" y="405"/>
      <point x="530" y="446"/>
      <point x="530" y="526" type="curve" smooth="yes"/>
      <point x="530" y="671"/>
      <point x="420" y="716"/>
      <point x="274" y="716" type="curve" smooth="yes"/>
      <point x="221" y="716"/>
      <point x="132" y="706"/>
      <point x="77" y="691" type="curve"/>
      <point x="95" y="566" type="line"/>
      <point x="196" y="578"/>
      <point x="231" y="581"/>
      <point x="267" y="581" type="curve" smooth="yes"/>
      <point x="314" y="581"/>
      <point x="346" y="577"/>
      <point x="358" y="566" type="curve" smooth="yes"/>
      <point x="366" y="559"/>
      <point x="371" y="544"/>
      <point x="371" y="516" type="curve" smooth="yes"/>
      <point x="371" y="448"/>
      <point x="321" y="446"/>
      <point x="152" y="434" type="curve"/>
      <point x="152" y="304" type="line"/>
      <point x="284" y="304" type="line" smooth="yes"/>
      <point x="356" y="304"/>
      <point x="389" y="278"/>
      <point x="389" y="199" type="curve" smooth="yes"/>
      <point x="389" y="147"/>
      <point x="372" y="123"/>
      <point x="314" y="123" type="curve" smooth="yes"/>
      <point x="235" y="123"/>
      <point x="119" y="161"/>
      <point x="87" y="170" type="curve"/>
      <point x="40" y="58" type="line"/>
      <point x="61" y="48"/>
      <point x="169" y="-13"/>
    </contour>
  </outline>
</glyph>
<glyph name="four" format="2">
  <advance width="578"/>
  <unicode hex="0034"/>
  <outline>
    <contour>
      <point x="331" y="0" type="line"/>
      <point x="486" y="0" type="line"/>
      <point x="485" y="140" type="line"/>
      <point x="551" y="140" type="line"/>
      <point x="551" y="275" type="line"/>
      <point x="485" y="273" type="line"/>
      <point x="485" y="517" type="line"/>
      <point x="366" y="517" type="line"/>
      <point x="332" y="269" type="line"/>
      <point x="172" y="263" type="line"/>
      <point x="172" y="269" type="line"/>
      <point x="328" y="698" type="line"/>
      <point x="179" y="717" type="line"/>
      <point x="7" y="240" type="line"/>
      <point x="7" y="140" type="line"/>
      <point x="331" y="140" type="line"/>
    </contour>
  </outline>
</glyph>
<glyph name="six" format="2">
  <advance width="592"/>
  <unicode hex="0036"/>
  <outline>
    <contour>
      <point x="302" y="-13" type="curve" smooth="yes"/>
      <point x="458" y="-13"/>
      <point x="554" y="72"/>
      <point x="554" y="226" type="curve" smooth="yes"/>
      <point x="554" y="390"/>
      <point x="447" y="447"/>
      <point x="276" y="447" type="curve" smooth="yes"/>
      <point x="250" y="447"/>
      <point x="203" y="444"/>
      <point x="203" y="444" type="curve"/>
      <point x="210" y="509"/>
      <point x="224" y="545"/>
      <point x="245" y="562" type="curve" smooth="yes"/>
      <point x="261" y="576"/>
      <point x="285" y="582"/>
      <point x="323" y="582" type="curve" smooth="yes"/>
      <point x="386" y="582"/>
      <point x="490" y="559"/>
      <point x="490" y="559" type="curve"/>
      <point x="524" y="681" type="line"/>
      <point x="524" y="681"/>
      <point x="435" y="716"/>
      <point x="340" y="716" type="curve" smooth="yes"/>
      <point x="176" y="716"/>
      <point x="38" y="642"/>
      <point x="38" y="335" type="curve" smooth="yes"/>
      <point x="38" y="77"/>
      <point x="137" y="-13"/>
    </contour>
    <contour>
      <point x="308" y="118" type="curve" smooth="yes"/>
      <point x="262" y="118"/>
      <point x="242" y="127"/>
      <point x="231" y="136" type="curve" smooth="yes"/>
      <point x="220" y="144"/>
      <point x="199" y="171"/>
      <point x="199" y="259" type="curve" smooth="yes"/>
      <point x="199" y="309" type="line"/>
      <point x="199" y="309"/>
      <point x="259" y="316"/>
      <point x="297" y="316" type="curve" smooth="yes"/>
      <point x="380" y="316"/>
      <point x="400" y="293"/>
      <point x="400" y="222" type="curve" smooth="yes"/>
      <point x="400" y="146"/>
      <point x="378" y="118"/>
    </contour>
  </outline>
</glyph>
<glyph name="at" format="2">
  <advance width="815"/>
  <unicode hex="0040"/>
  <outline>
    <contour>
      <point x="405" y="-61" type="curve" smooth="yes"/>
      <point x="464" y="-61"/>
      <point x="514" y="-44"/>
      <point x="514" y="-44" type="curve"/>
      <point x="503" y="40" type="line"/>
      <point x="503" y="40"/>
      <point x="443" y="27"/>
      <point x="408" y="27" type="curve" smooth="yes"/>
      <point x="263" y="27"/>
      <point x="137" y="132"/>
      <point x="137" y="325" type="curve" smooth="yes"/>
      <point x="137" y="516"/>
      <point x="259" y="611"/>
      <point x="421" y="611" type="curve" smooth="yes"/>
      <point x="581" y="611"/>
      <point x="676" y="520"/>
      <point x="676" y="376" type="curve" smooth="yes"/>
      <point x="676" y="266"/>
      <point x="608" y="198"/>
      <point x="579" y="198" type="curve" smooth="yes"/>
      <point x="568" y="198"/>
      <point x="568" y="202"/>
      <point x="568" y="305" type="curve" smooth="yes"/>
      <point x="568" y="373"/>
      <point x="570" y="520"/>
      <point x="570" y="520" type="curve"/>
      <point x="570" y="520"/>
      <point x="473" y="548"/>
      <point x="403" y="548" type="curve" smooth="yes"/>
      <point x="291" y="548"/>
      <point x="231" y="500"/>
      <point x="231" y="329" type="curve" smooth="yes"/>
      <point x="231" y="151"/>
      <point x="305" y="107"/>
      <point x="356" y="107" type="curve" smooth="yes"/>
      <point x="409" y="107"/>
      <point x="452" y="156"/>
      <point x="476" y="198" type="curve"/>
      <point x="480" y="198" type="line"/>
      <point x="489" y="143"/>
      <point x="509" y="107"/>
      <point x="565" y="107" type="curve" smooth="yes"/>
      <point x="659" y="107"/>
      <point x="767" y="224"/>
      <point x="767" y="380" type="curve" smooth="yes"/>
      <point x="767" y="586"/>
      <point x="598" y="701"/>
      <point x="421" y="701" type="curve" smooth="yes"/>
      <point x="239" y="701"/>
      <point x="44" y="580"/>
      <point x="44" y="317" type="curve" smooth="yes"/>
      <point x="44" y="65"/>
      <point x="226" y="-61"/>
    </contour>
    <contour>
      <point x="366" y="209" type="curve" smooth="yes"/>
      <point x="350" y="209"/>
      <point x="340" y="245"/>
      <point x="340" y="333" type="curve" smooth="yes"/>
      <point x="340" y="388"/>
      <point x="346" y="422"/>
      <point x="357" y="437" type="curve" smooth="yes"/>
      <point x="363" y="445"/>
      <point x="378" y="450"/>
      <point x="399" y="450" type="curve" smooth="yes"/>
      <point x="435" y="450"/>
      <point x="466" y="444"/>
      <point x="466" y="444" type="curve"/>
      <point x="466" y="338"/>
      <point x="413" y="209"/>
    </contour>
  </outline>
</glyph>
<glyph name="D" format="2">
  <advance width="673"/>
  <unicode hex="0044"/>
  <anchor x="337" y="0" name="bottom"/>
  <anchor x="337" y="352" name="center"/>
  <anchor x="337" y="703" name="top"/>
  <outline>
    <contour>
      <point x="322" y="-13" type="curve" smooth="yes"/>
      <point x="501" y="-13"/>
      <point x="623" y="81"/>
      <point x="623" y="360" type="curve" smooth="yes"/>
      <point x="623" y="555"/>
      <point x="575" y="716"/>
      <point x="332" y="716" type="curve" smooth="yes"/>
      <point x="246" y="716"/>
      <point x="106" y="706"/>
      <point x="67" y="703" type="curve"/>
      <point x="83" y="772" type="line"/>
      <point x="83" y="-70" type="line"/>
      <point x="63" y="4" type="line"/>
      <point x="87" y="1"/>
      <point x="226" y="-13"/>
    </contour>
    <contour>
      <point x="330" y="122" type="curve" smooth="yes"/>
      <point x="270" y="122"/>
      <point x="247" y="126"/>
      <point x="219" y="130" type="curve"/>
      <point x="239" y="57" type="line"/>
      <point x="239" y="645" type="line"/>
      <point x="219" y="571" type="line"/>
      <point x="244" y="576"/>
      <point x="268" y="581"/>
      <point x="334" y="581" type="curve" smooth="yes"/>
      <point x="389" y="581"/>
      <point x="408" y="571"/>
      <point x="417" y="564" type="curve" smooth="yes"/>
      <point x="447" y="542"/>
      <point x="460" y="465"/>
      <point x="460" y="364" type="curve" smooth="yes"/>
      <point x="460" y="214"/>
      <point x="437" y="160"/>
      <point x="414" y="141" type="curve" smooth="yes"/>
      <point x="402" y="130"/>
      <point x="376" y="122"/>
    </contour>
  </outline>
</glyph>
<glyph name="E" format="2">
  <advance width="551"/>
  <unicode hex="0045"/>
  <anchor x="276" y="0" name="bottom"/>
  <anchor x="486" y="10" name="ogonek"/>
  <anchor x="298" y="703" name="top"/>
  <anchor x="20" y="703" name="topleft"/>
  <outline>
    <contour>
      <point x="83" y="0" type="line"/>
      <point x="505" y="0" type="line"/>
      <point x="505" y="134" type="line"/>
      <point x="170" y="131" type="line"/>
      <point x="242" y="62" type="line"/>
      <point x="233" y="361" type="line"/>
      <point x="165" y="291" type="line"/>
      <point x="480" y="291" type="line"/>
      <point x="480" y="422" type="line"/>
      <point x="165" y="422" type="line"/>
      <point x="233" y="352" type="line"/>
      <point x="242" y="642" type="line"/>
      <point x="170" y="573" type="line"/>
      <point x="505" y="569" type="line"/>
      <point x="505" y="703" type="line"/>
      <point x="83" y="703" type="line"/>
    </contour>
  </outline>
</glyph>
<glyph name="J" format="2">
  <advance width="363"/>
  <unicode hex="004A"/>
  <anchor x="182" y="0" name="bottom"/>
  <anchor x="182" y="703" name="top"/>
  <outline>
    <contour>
      <point x="75" y="-13" type="curve" smooth="yes"/>
      <point x="192" y="-13"/>
      <point x="280" y="52"/>
      <point x="280" y="247" type="curve" smooth="yes"/>
      <point x="280" y="703" type="line"/>
      <point x="123" y="703" type="line"/>
      <point x="123" y="245" type="line" smooth="yes"/>
      <point x="123" y="133"/>
      <point x="109" y="121"/>
      <point x="78" y="121" type="curve" smooth="yes"/>
      <point x="56" y="121"/>
      <point x="14" y="127"/>
      <point x="-6" y="131" type="curve"/>
      <point x="-21" y="-2" type="line"/>
      <point x="-21" y="-2"/>
      <point x="31" y="-13"/>
    </contour>
  </outline>
</glyph>
<glyph name="K" format="2">
  <advance width="664"/>
  <unicode hex="004B"/>
  <anchor x="332" y="0" name="bottom"/>
  <anchor x="332" y="703" name="top"/>
  <outline>
    <contour>
      <point x="482" y="0" type="line"/>
      <point x="666" y="0" type="line"/>
      <point x="412" y="369" type="line"/>
      <point x="412" y="375" type="line"/>
      <point x="654" y="703" type="line"/>
      <point x="472" y="703" type="line"/>
      <point x="243" y="369" type="line"/>
    </contour>
    <contour>
      <point x="83" y="0" type="line"/>
      <point x="241" y="0" type="line"/>
      <point x="241" y="703" type="line"/>
      <point x="83" y="703" type="line"/>
      <point x="86" y="358" type="line"/>
    </contour>
  </outline>
</glyph>
<glyph name="L" format="2">
  <advance width="504"/>
  <unicode hex="004C"/>
  <anchor x="262" y="0" name="bottom"/>
  <anchor x="242" y="352" name="center"/>
  <anchor x="242" y="703" name="top"/>
  <anchor x="463" y="703" name="topright"/>
  <outline>
    <contour>
      <point x="83" y="0" type="line"/>
      <point x="504" y="0" type="line"/>
      <point x="504" y="144" type="line"/>
      <point x="165" y="141" type="line"/>
      <point x="234" y="62" type="line"/>
      <point x="240" y="703" type="line"/>
      <point x="83" y="703" type="line"/>
    </contour>
  </outline>
</glyph>
<glyph name="M" format="2">
  <advance width="843"/>
  <unicode hex="004D"/>
  <anchor x="422" y="0" name="bottom"/>
  <anchor x="422" y="703" name="top"/>
  <outline>
    <contour>
      <point x="75" y="0" type="line"/>
      <point x="231" y="0" type="line"/>
      <point x="226" y="527" type="line"/>
      <point x="232" y="527" type="line"/>
      <point x="340" y="147" type="line"/>
      <point x="503" y="147" type="line"/>
      <point x="611" y="527" type="line"/>
      <point x="617" y="527" type="line"/>
      <point x="612" y="0" type="line"/>
      <point x="768" y="0" type="line"/>
      <point x="742" y="703" type="line"/>
      <point x="544" y="703" type="line"/>
      <point x="424" y="302" type="line"/>
      <point x="418" y="302" type="line"/>
      <point x="301" y="703" type="line"/>
      <point x="100" y="703" type="line"/>
    </contour>
    <contour>
      <point x="75" y="0" type="line"/>
      <point x="231" y="0" type="line"/>
      <point x="226" y="527" type="line"/>
      <point x="232" y="527" type="line"/>
      <point x="340" y="147" type="line"/>
      <point x="503" y="147" type="line"/>
      <point x="611" y="527" type="line"/>
      <point x="617" y="527" type="line"/>
      <point x="612" y="0" type="line"/>
      <point x="768" y="0" type="line"/>
      <point x="742" y="703" type="line"/>
      <point x="544" y="703" type="line"/>
      <point x="424" y="302" type="line"/>
      <point x="418" y="302" type="line"/>
      <point x="301" y="703" type="line"/>
      <point x="100" y="703" type="line"/>
    </contour>
  </outline>
</glyph>
<glyph name="O" format="2">
  <advance width="700"/>
  <unicode hex="004F"/>
  <anchor x="350" y="0" name="bottom"/>
  <anchor x="350" y="352" name="center"/>
  <anchor x="630" y="10" name="ogonek"/>
  <anchor x="350" y="703" name="top"/>
  <anchor x="20" y="703" name="topleft"/>
  <anchor x="680" y="703" name="topright"/>
  <outline>
    <contour>
      <point x="350" y="-13" type="curve" smooth="yes"/>
      <point x="514" y="-13"/>
      <point x="650" y="57"/>
      <point x="650" y="353" type="curve" smooth="yes"/>
      <point x="650" y="648"/>
      <point x="514" y="716"/>
      <point x="350" y="716" type="curve" smooth="yes"/>
      <point x="186" y="716"/>
      <point x="50" y="648"/>
      <point x="50" y="353" type="curve" smooth="yes"/>
      <point x="50" y="57"/>
      <point x="186" y="-13"/>
    </contour>
    <contour>
      <point x="350" y="125" type="curve" smooth="yes"/>
      <point x="255" y="125"/>
      <point x="213" y="157"/>
      <point x="213" y="351" type="curve" smooth="yes"/>
      <point x="213" y="545"/>
      <point x="253" y="578"/>
      <point x="350" y="578" type="curve" smooth="yes"/>
      <point x="447" y="578"/>
      <point x="487" y="545"/>
      <point x="487" y="351" type="curve" smooth="yes"/>
      <point x="487" y="158"/>
      <point x="445" y="125"/>
    </contour>
  </outline>
</glyph>
<glyph name="S" format="2">
  <advance width="570"/>
  <unicode hex="0053"/>
  <anchor x="285" y="0" name="bottom"/>
  <anchor x="285" y="703" name="top"/>
  <outline>
    <contour>
      <point x="278" y="-13" type="curve" smooth="yes"/>
      <point x="427" y="-13"/>
      <point x="529" y="74"/>
      <point x="529" y="204" type="curve" smooth="yes"/>
      <point x="529" y="351"/>
      <point x="402" y="388"/>
      <point x="312" y="430" type="curve" smooth="yes"/>
      <point x="255" y="456"/>
      <point x="208" y="480"/>
      <point x="208" y="519" type="curve" smooth="yes"/>
      <point x="208" y="552"/>
      <point x="218" y="563"/>
      <point x="228" y="570" type="curve" smooth="yes"/>
      <point x="238" y="577"/>
      <point x="251" y="581"/>
      <point x="277" y="581" type="curve" smooth="yes"/>
      <point x="359" y="581"/>
      <point x="479" y="558"/>
      <point x="479" y="558" type="curve"/>
      <point x="504" y="683" type="line"/>
      <point x="504" y="683"/>
      <point x="392" y="716"/>
      <point x="296" y="716" type="curve" smooth="yes"/>
      <point x="131" y="716"/>
      <point x="48" y="629"/>
      <point x="48" y="519" type="curve" smooth="yes"/>
      <point x="48" y="382"/>
      <point x="142" y="346"/>
      <point x="228" y="305" type="curve" smooth="yes"/>
      <point x="301" y="270"/>
      <point x="369" y="248"/>
      <point x="369" y="198" type="curve" smooth="yes"/>
      <point x="369" y="161"/>
      <point x="359" y="142"/>
      <point x="345" y="133" type="curve" smooth="yes"/>
      <point x="337" y="128"/>
      <point x="323" y="122"/>
      <point x="298" y="122" type="curve" smooth="yes"/>
      <point x="195" y="122"/>
      <point x="72" y="171"/>
      <point x="72" y="171" type="curve"/>
      <point x="72" y="172"/>
      <point x="33" y="49"/>
      <point x="33" y="49" type="curve"/>
      <point x="33" y="49"/>
      <point x="150" y="-13"/>
    </contour>
  </outline>
</glyph>
<glyph name="U" format="2">
  <advance width="702"/>
  <unicode hex="0055"/>
  <anchor x="351" y="0" name="bottom"/>
  <anchor x="442" y="10" name="ogonek"/>
  <anchor x="351" y="703" name="top"/>
  <anchor x="682" y="703" name="topright"/>
  <outline>
    <contour>
      <point x="351" y="-13" type="curve" smooth="yes"/>
      <point x="523" y="-13"/>
      <point x="619" y="58"/>
      <point x="619" y="317" type="curve" smooth="yes"/>
      <point x="619" y="703" type="line"/>
      <point x="462" y="703" type="line"/>
      <point x="462" y="337" type="line" smooth="yes"/>
      <point x="462" y="147"/>
      <point x="438" y="126"/>
      <point x="351" y="125" type="curve" smooth="yes"/>
      <point x="265" y="125"/>
      <point x="240" y="150"/>
      <point x="240" y="337" type="curve" smooth="yes"/>
      <point x="240" y="703" type="line"/>
      <point x="83" y="703" type="line"/>
      <point x="83" y="309" type="line" smooth="yes"/>
      <point x="83" y="58"/>
      <point x="180" y="-13"/>
    </contour>
  </outline>
</glyph>
<glyph name="V" format="2">
  <advance width="599"/>
  <unicode hex="0056"/>
  <anchor x="305" y="0" name="bottom"/>
  <anchor x="305" y="703" name="top"/>
  <outline>
    <contour>
      <point x="198" y="0" type="line"/>
      <point x="401" y="0" type="line"/>
      <point x="593" y="703" type="line"/>
      <point x="426" y="703" type="line"/>
      <point x="302" y="143" type="line"/>
      <point x="296" y="143" type="line"/>
      <point x="173" y="703" type="line"/>
      <point x="6" y="703" type="line"/>
    </contour>
  </outline>
</glyph>
<glyph name="bracketleft" format="2">
  <advance width="342"/>
  <unicode hex="005B"/>
  <outline>
    <contour>
      <point x="84" y="-124" type="line"/>
      <point x="323" y="-124" type="line"/>
      <point x="323" y="-10" type="line"/>
      <point x="228" y="-11" type="line"/>
      <point x="228" y="678" type="line"/>
      <point x="323" y="676" type="line"/>
      <point x="323" y="791" type="line"/>
      <point x="84" y="791" type="line"/>
    </contour>
  </outline>
</glyph>
<glyph name="grave" format="2">
  <advance width="324"/>
  <unicode hex="0060"/>
  <outline>
    <contour>
      <point x="305" y="646" type="line"/>
      <point x="324" y="729" type="line"/>
      <point x="26" y="816" type="line"/>
      <point x="0" y="704" type="line"/>
    </contour>
  </outline>
</glyph>
<glyph name="e" format="2">
  <advance width="611"/>
  <unicode hex="0065"/>
  <anchor x="304" y="0" name="bottom"/>
  <anchor x="476" y="27" name="ogonek"/>
  <anchor x="320" y="588" name="top"/>
  <outline>
    <contour>
      <point x="322" y="-14" type="curve" smooth="yes"/>
      <point x="431" y="-14"/>
      <point x="533" y="31"/>
      <point x="552" y="40" type="curve"/>
      <point x="514" y="152" type="line"/>
      <point x="493" y="145"/>
      <point x="377" y="109"/>
      <point x="304" y="109" type="curve" smooth="yes"/>
      <point x="271" y="109"/>
      <point x="251" y="116"/>
      <point x="238" y="128" type="curve" smooth="yes"/>
      <point x="215" y="148"/>
      <point x="207" y="189"/>
      <point x="207" y="262" type="curve"/>
      <point x="137" y="240" type="line"/>
      <point x="563" y="240" type="line"/>
      <point x="563" y="323" type="line" smooth="yes"/>
      <point x="563" y="529"/>
      <point x="475" y="602"/>
      <point x="320" y="602" type="curve" smooth="yes"/>
      <point x="168" y="602"/>
      <point x="50" y="530"/>
      <point x="50" y="295" type="curve" smooth="yes"/>
      <point x="50" y="68"/>
      <point x="159" y="-14"/>
    </contour>
    <contour>
      <point x="207" y="330" type="line"/>
      <point x="207" y="392"/>
      <point x="216" y="435"/>
      <point x="234" y="454" type="curve" smooth="yes"/>
      <point x="247" y="469"/>
      <point x="269" y="480"/>
      <point x="320" y="480" type="curve" smooth="yes"/>
      <point x="363" y="480"/>
      <point x="378" y="469"/>
      <point x="387" y="458" type="curve" smooth="yes"/>
      <point x="400" y="440"/>
      <point x="405" y="399"/>
      <point x="405" y="335" type="curve"/>
      <point x="475" y="357" type="line"/>
      <point x="138" y="351" type="line"/>
    </contour>
  </outline>
</glyph>
<glyph name="g" format="2">
  <advance width="565"/>
  <unicode hex="0067"/>
  <anchor x="283" y="-166" name="bottom"/>
  <anchor x="283" y="588" name="top"/>
  <outline>
    <contour>
      <point x="277" y="-179" type="curve" smooth="yes"/>
      <point x="426" y="-179"/>
      <point x="534" y="-129"/>
      <point x="534" y="-35" type="curve" smooth="yes"/>
      <point x="534" y="24"/>
      <point x="491" y="62"/>
      <point x="363" y="112" type="curve" smooth="yes"/>
      <point x="296" y="138"/>
      <point x="259" y="146"/>
      <point x="259" y="154" type="curve" smooth="yes"/>
      <point x="259" y="156"/>
      <point x="261" y="174"/>
      <point x="261" y="174" type="curve"/>
      <point x="424" y="176"/>
      <point x="517" y="264"/>
      <point x="517" y="377" type="curve" smooth="yes"/>
      <point x="517" y="435"/>
      <point x="492" y="489"/>
      <point x="492" y="489" type="curve"/>
      <point x="554" y="499" type="line"/>
      <point x="554" y="589" type="line"/>
      <point x="554" y="589"/>
      <point x="370" y="601"/>
      <point x="300" y="601" type="curve" smooth="yes"/>
      <point x="153" y="601"/>
      <point x="25" y="547"/>
      <point x="25" y="386" type="curve" smooth="yes"/>
      <point x="25" y="284"/>
      <point x="77" y="222"/>
      <point x="169" y="190" type="curve"/>
      <point x="169" y="190"/>
      <point x="130" y="99"/>
      <point x="130" y="75" type="curve" smooth="yes"/>
      <point x="130" y="66"/>
      <point x="136" y="61"/>
      <point x="220" y="31" type="curve" smooth="yes"/>
      <point x="381" y="-27"/>
      <point x="391" y="-29"/>
      <point x="391" y="-40" type="curve" smooth="yes"/>
      <point x="391" y="-52"/>
      <point x="377" y="-56"/>
      <point x="332" y="-56" type="curve" smooth="yes"/>
      <point x="248" y="-56"/>
      <point x="150" y="-42"/>
      <point x="54" y="-27" type="curve"/>
      <point x="37" y="-145" type="line"/>
      <point x="37" y="-145"/>
      <point x="154" y="-179"/>
    </contour>
    <contour>
      <point x="272" y="287" type="curve" smooth="yes"/>
      <point x="190" y="287"/>
      <point x="167" y="309"/>
      <point x="167" y="390" type="curve" smooth="yes"/>
      <point x="167" y="479"/>
      <point x="195" y="491"/>
      <point x="285" y="491" type="curve" smooth="yes"/>
      <point x="311" y="491"/>
      <point x="354" y="490"/>
      <point x="362" y="482" type="curve" smooth="yes"/>
      <point x="370" y="474"/>
      <point x="375" y="441"/>
      <point x="375" y="398" type="curve" smooth="yes"/>
      <point x="375" y="309"/>
      <point x="354" y="287"/>
    </contour>
  </outline>
</glyph>
<glyph name="q" format="2">
  <advance width="624"/>
  <unicode hex="0071"/>
  <anchor x="312" y="0" name="bottom"/>
  <anchor x="312" y="588" name="top"/>
  <outline>
    <contour>
      <point x="395" y="-166" type="line"/>
      <point x="550" y="-166" type="line"/>
      <point x="550" y="564" type="line"/>
      <point x="550" y="564"/>
      <point x="410" y="601"/>
      <point x="297" y="601" type="curve" smooth="yes"/>
      <point x="136" y="601"/>
      <point x="48" y="526"/>
      <point x="48" y="305" type="curve" smooth="yes"/>
      <point x="48" y="49"/>
      <point x="166" y="-13"/>
      <point x="276" y="-13" type="curve" smooth="yes"/>
      <point x="341" y="-13"/>
      <point x="395" y="9"/>
      <point x="395" y="9" type="curve"/>
    </contour>
    <contour>
      <point x="289" y="113" type="curve" smooth="yes"/>
      <point x="258" y="113"/>
      <point x="242" y="117"/>
      <point x="233" y="126" type="curve" smooth="yes"/>
      <point x="214" y="144"/>
      <point x="206" y="197"/>
      <point x="206" y="302" type="curve" smooth="yes"/>
      <point x="206" y="408"/>
      <point x="215" y="443"/>
      <point x="230" y="458" type="curve" smooth="yes"/>
      <point x="238" y="466"/>
      <point x="250" y="474"/>
      <point x="292" y="474" type="curve" smooth="yes"/>
      <point x="340" y="474"/>
      <point x="395" y="462"/>
      <point x="395" y="462" type="curve"/>
      <point x="395" y="128" type="line"/>
      <point x="395" y="128"/>
      <point x="346" y="113"/>
    </contour>
  </outline>
</glyph>
<glyph name="r" format="2">
  <advance width="430"/>
  <unicode hex="0072"/>
  <anchor x="148" y="0" name="bottom"/>
  <anchor x="254" y="588" name="top"/>
  <outline>
    <contour>
      <point x="79" y="0" type="line"/>
      <point x="234" y="0" type="line"/>
      <point x="234" y="423" type="line"/>
      <point x="263" y="441"/>
      <point x="308" y="459"/>
      <point x="359" y="459" type="curve" smooth="yes"/>
      <point x="386" y="459"/>
      <point x="414" y="456"/>
      <point x="414" y="456" type="curve"/>
      <point x="426" y="590" type="line"/>
      <point x="426" y="590"/>
      <point x="407" y="601"/>
      <point x="361" y="601" type="curve" smooth="yes"/>
      <point x="289" y="601"/>
      <point x="201" y="526"/>
      <point x="201" y="526" type="curve"/>
      <point x="195" y="526" type="line"/>
      <point x="175" y="588" type="line"/>
      <point x="79" y="588" type="line"/>
    </contour>
  </outline>
</glyph>
<glyph name="t" format="2">
  <advance width="400"/>
  <unicode hex="0074"/>
  <anchor x="211" y="0" name="bottom"/>
  <anchor x="200" y="294" name="center"/>
  <anchor x="187" y="691" name="top"/>
  <anchor x="380" y="588" name="topright"/>
  <outline>
    <contour>
      <point x="258" y="-13" type="curve" smooth="yes"/>
      <point x="317" y="-13"/>
      <point x="366" y="-2"/>
      <point x="366" y="-2" type="curve"/>
      <point x="366" y="124" type="line"/>
      <point x="366" y="124"/>
      <point x="318" y="119"/>
      <point x="289" y="119" type="curve" smooth="yes"/>
      <point x="259" y="119"/>
      <point x="246" y="124"/>
      <point x="246" y="193" type="curve" smooth="yes"/>
      <point x="246" y="440" type="line"/>
      <point x="368" y="440" type="line"/>
      <point x="368" y="559" type="line"/>
      <point x="248" y="559" type="line"/>
      <point x="248" y="693" type="line"/>
      <point x="121" y="693" type="line"/>
      <point x="98" y="554" type="line"/>
      <point x="23" y="540" type="line"/>
      <point x="23" y="443" type="line"/>
      <point x="91" y="443" type="line"/>
      <point x="91" y="197" type="line" smooth="yes"/>
      <point x="91" y="23"/>
      <point x="151" y="-13"/>
    </contour>
  </outline>
</glyph>
<glyph name="w" format="2">
  <advance width="804"/>
  <unicode hex="0077"/>
  <anchor x="402" y="0" name="bottom"/>
  <anchor x="402" y="588" name="top"/>
  <outline>
    <contour>
      <point x="137" y="0" type="line"/>
      <point x="333" y="0" type="line"/>
      <point x="402" y="393" type="line"/>
      <point x="408" y="393" type="line"/>
      <point x="477" y="0" type="line"/>
      <point x="673" y="0" type="line"/>
      <point x="789" y="588" type="line"/>
      <point x="633" y="588" type="line"/>
      <point x="574" y="114" type="line"/>
      <point x="568" y="114" type="line"/>
      <point x="499" y="507" type="line"/>
      <point x="311" y="507" type="line"/>
      <point x="243" y="114" type="line"/>
      <point x="237" y="114" type="line"/>
      <point x="176" y="588" type="line"/>
      <point x="20" y="588" type="line"/>
    </contour>
  </outline>
</glyph>
<glyph name="braceleft" format="2">
  <advance width="464"/>
  <unicode hex="007B"/>
  <outline>
    <contour>
      <point x="362" y="-123" type="curve" smooth="yes"/>
      <point x="452" y="-119" type="line"/>
      <point x="444" y="-8" type="line"/>
      <point x="357" y="-12" type="line" smooth="yes"/>
      <point x="326" y="-12"/>
      <point x="314" y="-1"/>
      <point x="314" y="92" type="curve" smooth="yes"/>
      <point x="314" y="193" type="line" smooth="yes"/>
      <point x="314" y="277"/>
      <point x="276" y="317"/>
      <point x="228" y="339" type="curve"/>
      <point x="228" y="345" type="line"/>
      <point x="276" y="365"/>
      <point x="314" y="406"/>
      <point x="314" y="488" type="curve" smooth="yes"/>
      <point x="314" y="581" type="line" smooth="yes"/>
      <point x="314" y="669"/>
      <point x="327" y="680"/>
      <point x="361" y="680" type="curve" smooth="yes"/>
      <point x="376" y="680"/>
      <point x="444" y="675"/>
      <point x="444" y="675" type="curve"/>
      <point x="452" y="785" type="line"/>
      <point x="452" y="785"/>
      <point x="417" y="791"/>
      <point x="359" y="791" type="curve" smooth="yes"/>
      <point x="240" y="791"/>
      <point x="159" y="733"/>
      <point x="159" y="583" type="curve" smooth="yes"/>
      <point x="159" y="489" type="line" smooth="yes"/>
      <point x="159" y="418"/>
      <point x="132" y="407"/>
      <point x="34" y="394" type="curve"/>
      <point x="34" y="291" type="line"/>
      <point x="136" y="277"/>
      <point x="159" y="267"/>
      <point x="159" y="196" type="curve" smooth="yes"/>
      <point x="159" y="92" type="line" smooth="yes"/>
      <point x="159" y="-60"/>
      <point x="236" y="-123"/>
    </contour>
  </outline>
</glyph>
<glyph name="exclamdown" format="2">
  <advance width="291"/>
  <unicode hex="00A1"/>
  <outline>
    <contour>
      <point x="63" y="-114" type="line"/>
      <point x="231" y="-114" type="line"/>
      <point x="214" y="385" type="line"/>
      <point x="79" y="385" type="line"/>
    </contour>
    <contour>
      <point x="58" y="454" type="line"/>
      <point x="233" y="454" type="line"/>
      <point x="233" y="588" type="line"/>
      <point x="58" y="588" type="line"/>
    </contour>
  </outline>
</glyph>
<glyph name="currency" format="2">
  <advance width="653"/>
  <unicode hex="00A4"/>
  <outline>
    <contour>
      <point x="132" y="73" type="line"/>
      <point x="194" y="135" type="line"/>
      <point x="236" y="111"/>
      <point x="283" y="98"/>
      <point x="330" y="98" type="curve" smooth="yes"/>
      <point x="376" y="98"/>
      <point x="423" y="111"/>
      <point x="465" y="135" type="curve"/>
      <point x="526" y="74" type="line"/>
      <point x="606" y="153" type="line"/>
      <point x="545" y="214" type="line"/>
      <point x="566" y="249"/>
      <point x="581" y="293"/>
      <point x="581" y="351" type="curve" smooth="yes"/>
      <point x="581" y="408"/>
      <point x="566" y="450"/>
      <point x="544" y="485" type="curve"/>
      <point x="605" y="546" type="line"/>
      <point x="526" y="626" type="line"/>
      <point x="463" y="563" type="line"/>
      <point x="422" y="587"/>
      <point x="375" y="601"/>
      <point x="330" y="601" type="curve" smooth="yes"/>
      <point x="282" y="601"/>
      <point x="236" y="588"/>
      <point x="195" y="564" type="curve"/>
      <point x="133" y="626" type="line"/>
      <point x="53" y="547" type="line"/>
      <point x="114" y="485" type="line"/>
      <point x="93" y="450"/>
      <point x="78" y="407"/>
      <point x="78" y="351" type="curve" smooth="yes"/>
      <point x="78" y="294"/>
      <point x="93" y="249"/>
      <point x="114" y="214" type="curve"/>
      <point x="53" y="153" type="line"/>
    </contour>
    <contour>
      <point x="330" y="215" type="curve" smooth="yes"/>
      <point x="255" y="215"/>
      <point x="199" y="255"/>
      <point x="199" y="350" type="curve" smooth="yes"/>
      <point x="199" y="444"/>
      <point x="255" y="484"/>
      <point x="330" y="484" type="curve" smooth="yes"/>
      <point x="404" y="484"/>
      <point x="459" y="444"/>
      <point x="459" y="350" type="curve" smooth="yes"/>
      <point x="459" y="255"/>
      <point x="418" y="215"/>
    </contour>
  </outline>
</glyph>
<glyph name="copyright" format="2">
  <advance width="832"/>
  <unicode hex="00A9"/>
  <outline>
    <contour>
      <point x="415" y="-49" type="curve" smooth="yes"/>
      <point x="629" y="-49"/>
      <point x="782" y="106"/>
      <point x="782" y="320" type="curve" smooth="yes"/>
      <point x="782" y="534"/>
      <point x="629" y="689"/>
      <point x="415" y="689" type="curve" smooth="yes"/>
      <point x="211" y="689"/>
      <point x="50" y="534"/>
      <point x="50" y="320" type="curve" smooth="yes"/>
      <point x="50" y="106"/>
      <point x="201" y="-49"/>
    </contour>
    <contour>
      <point x="425" y="109" type="curve" smooth="yes"/>
      <point x="512" y="109"/>
      <point x="563" y="140"/>
      <point x="563" y="140" type="curve"/>
      <point x="537" y="239" type="line"/>
      <point x="537" y="239"/>
      <point x="468" y="217"/>
      <point x="416" y="217" type="curve" smooth="yes"/>
      <point x="404" y="217"/>
      <point x="392" y="220"/>
      <point x="385" y="227" type="curve" smooth="yes"/>
      <point x="375" y="237"/>
      <point x="364" y="267"/>
      <point x="364" y="320" type="curve" smooth="yes"/>
      <point x="364" y="381"/>
      <point x="373" y="406"/>
      <point x="385" y="418" type="curve" smooth="yes"/>
      <point x="393" y="426"/>
      <point x="407" y="430"/>
      <point x="435" y="430" type="curve" smooth="yes"/>
      <point x="452" y="430"/>
      <point x="523" y="421"/>
      <point x="535" y="419" type="curve"/>
      <point x="551" y="516" type="line"/>
      <point x="530" y="528"/>
      <point x="465" y="539"/>
      <point x="436" y="539" type="curve" smooth="yes"/>
      <point x="323" y="539"/>
      <point x="227" y="501"/>
      <point x="227" y="319" type="curve" smooth="yes"/>
      <point x="227" y="165"/>
      <point x="316" y="109"/>
    </contour>
    <contour>
      <point x="415" y="41" type="curve" smooth="yes"/>
      <point x="243" y="41"/>
      <point x="142" y="148"/>
      <point x="142" y="320" type="curve" smooth="yes"/>
      <point x="142" y="492"/>
      <point x="252" y="599"/>
      <point x="415" y="599" type="curve" smooth="yes"/>
      <point x="587" y="599"/>
      <point x="690" y="492"/>
      <point x="690" y="320" type="curve" smooth="yes"/>
      <point x="690" y="148"/>
      <point x="587" y="41"/>
    </contour>
  </outline>
</glyph>
<glyph name="registered" format="2">
  <advance width="832"/>
  <unicode hex="00AE"/>
  <outline>
    <contour>
      <point x="415" y="-49" type="curve" smooth="yes"/>
      <point x="629" y="-49"/>
      <point x="782" y="106"/>
      <point x="782" y="320" type="curve" smooth="yes"/>
      <point x="782" y="534"/>
      <point x="629" y="689"/>
      <point x="415" y="689" type="curve" smooth="yes"/>
      <point x="211" y="689"/>
      <point x="50" y="534"/>
      <point x="50" y="320" type="curve" smooth="yes"/>
      <point x="50" y="106"/>
      <point x="201" y="-49"/>
    </contour>
    <contour>
      <point x="415" y="41" type="curve" smooth="yes"/>
      <point x="243" y="41"/>
      <point x="142" y="148"/>
      <point x="142" y="320" type="curve" smooth="yes"/>
      <point x="142" y="492"/>
      <point x="252" y="599"/>
      <point x="415" y="599" type="curve" smooth="yes"/>
      <point x="587" y="599"/>
      <point x="690" y="492"/>
      <point x="690" y="320" type="curve" smooth="yes"/>
      <point x="690" y="148"/>
      <point x="587" y="41"/>
    </contour>
    <contour>
      <point x="248" y="120" type="line"/>
      <point x="366" y="120" type="line"/>
      <point x="366" y="254" type="line"/>
      <point x="409" y="253" type="line"/>
      <point x="457" y="120" type="line"/>
      <point x="593" y="120" type="line"/>
      <point x="513" y="262" type="line"/>
      <point x="513" y="265" type="line"/>
      <point x="556" y="285"/>
      <point x="586" y="324"/>
      <point x="586" y="395" type="curve" smooth="yes"/>
      <point x="586" y="495"/>
      <point x="519" y="530"/>
      <point x="419" y="530" type="curve" smooth="yes"/>
      <point x="354" y="530"/>
      <point x="273" y="524"/>
      <point x="249" y="522" type="curve"/>
      <point x="251" y="309" type="line"/>
    </contour>
    <contour>
      <point x="421" y="349" type="curve" smooth="yes"/>
      <point x="406" y="349"/>
      <point x="381" y="349"/>
      <point x="366" y="350" type="curve"/>
      <point x="367" y="430" type="line"/>
      <point x="376" y="431"/>
      <point x="403" y="433"/>
      <point x="421" y="433" type="curve" smooth="yes"/>
      <point x="455" y="433"/>
      <point x="461" y="419"/>
      <point x="461" y="398" type="curve" smooth="yes"/>
      <point x="461" y="358"/>
      <point x="453" y="349"/>
    </contour>
  </outline>
</glyph>
<glyph name="degree" format="2">
  <advance width="352"/>
  <unicode hex="00B0"/>
  <outline>
    <contour>
      <point x="176" y="390" type="curve" smooth="yes"/>
      <point x="260" y="390"/>
      <point x="346" y="436"/>
      <point x="346" y="561" type="curve" smooth="yes"/>
      <point x="346" y="685"/>
      <point x="260" y="730"/>
      <point x="176" y="730" type="curve" smooth="yes"/>
      <point x="91" y="730"/>
      <point x="6" y="685"/>
      <point x="6" y="561" type="curve" smooth="yes"/>
      <point x="6" y="436"/>
      <point x="91" y="390"/>
    </contour>
    <contour>
      <point x="176" y="506" type="curve" smooth="yes"/>
      <point x="145" y="506"/>
      <point x="124" y="519"/>
      <point x="124" y="561" type="curve" smooth="yes"/>
      <point x="124" y="601"/>
      <point x="145" y="614"/>
      <point x="176" y="614" type="curve" smooth="yes"/>
      <point x="207" y="614"/>
      <point x="228" y="601"/>
      <point x="228" y="561" type="curve" smooth="yes"/>
      <point x="228" y="519"/>
      <point x="207" y="506"/>
    </contour>
  </outline>
</glyph>
<glyph name="threesuperior" format="2">
  <advance width="384"/>
  <unicode hex="00B3"/>
  <outline>
    <contour>
      <point x="194" y="290" type="curve" smooth="yes"/>
      <point x="302" y="290"/>
      <point x="338" y="351"/>
      <point x="338" y="427" type="curve" smooth="yes"/>
      <point x="338" y="481"/>
      <point x="307" y="503"/>
      <point x="285" y="514" type="curve"/>
      <point x="285" y="518" type="line"/>
      <point x="305" y="531"/>
      <point x="326" y="547"/>
      <point x="326" y="597" type="curve" smooth="yes"/>
      <point x="326" y="682"/>
      <point x="263" y="714"/>
      <point x="177" y="714" type="curve" smooth="yes"/>
      <point x="148" y="714"/>
      <point x="88" y="707"/>
      <point x="52" y="701" type="curve"/>
      <point x="64" y="599" type="line"/>
      <point x="103" y="604"/>
      <point x="142" y="608"/>
      <point x="163" y="608" type="curve" smooth="yes"/>
      <point x="188" y="608"/>
      <point x="198" y="606"/>
      <point x="201" y="603" type="curve" smooth="yes"/>
      <point x="204" y="600"/>
      <point x="204" y="594"/>
      <point x="204" y="585" type="curve" smooth="yes"/>
      <point x="204" y="566"/>
      <point x="201" y="558"/>
      <point x="94" y="550" type="curve"/>
      <point x="94" y="461" type="line"/>
      <point x="177" y="461" type="line" smooth="yes"/>
      <point x="205" y="461"/>
      <point x="212" y="448"/>
      <point x="212" y="426" type="curve" smooth="yes"/>
      <point x="212" y="408"/>
      <point x="206" y="398"/>
      <point x="190" y="398" type="curve" smooth="yes"/>
      <point x="147" y="398"/>
      <point x="59" y="419"/>
      <point x="59" y="419" type="curve"/>
      <point x="32" y="318" type="line"/>
      <point x="32" y="318"/>
      <point x="116" y="290"/>
    </contour>
  </outline>
</glyph>
<glyph name="mu" format="2">
  <advance width="632"/>
  <unicode hex="00B5"/>
  <outline>
    <contour>
      <point x="66" y="-166" type="line"/>
      <point x="202" y="-166" type="line"/>
      <point x="190" y="-9" type="line"/>
      <point x="195" y="-5" type="line"/>
      <point x="195" y="-5"/>
      <point x="217" y="-13"/>
      <point x="239" y="-13" type="curve" smooth="yes"/>
      <point x="306" y="-13"/>
      <point x="375" y="29"/>
      <point x="429" y="61" type="curve"/>
      <point x="435" y="61" type="line"/>
      <point x="454" y="0" type="line"/>
      <point x="553" y="0" type="line"/>
      <point x="553" y="588" type="line"/>
      <point x="398" y="588" type="line"/>
      <point x="398" y="164" type="line"/>
      <point x="366" y="142"/>
      <point x="315" y="122"/>
      <point x="276" y="122" type="curve" smooth="yes"/>
      <point x="257" y="122"/>
      <point x="243" y="126"/>
      <point x="234" y="134" type="curve" smooth="yes"/>
      <point x="222" y="145"/>
      <point x="221" y="176"/>
      <point x="221" y="242" type="curve" smooth="yes"/>
      <point x="221" y="588" type="line"/>
      <point x="66" y="588" type="line"/>
    </contour>
  </outline>
</glyph>
<glyph name="paragraph" format="2">
  <advance width="735"/>
  <unicode hex="00B6"/>
  <outline>
    <contour>
      <point x="256" y="-166" type="line"/>
      <point x="410" y="-166" type="line"/>
      <point x="410" y="570" type="line"/>
      <point x="504" y="570" type="line"/>
      <point x="504" y="-166" type="line"/>
      <point x="659" y="-166" type="line"/>
      <point x="659" y="703" type="line"/>
      <point x="290" y="703" type="line" smooth="yes"/>
      <point x="127" y="703"/>
      <point x="27" y="641"/>
      <point x="27" y="438" type="curve" smooth="yes"/>
      <point x="27" y="248"/>
      <point x="114" y="181"/>
      <point x="256" y="172" type="curve"/>
    </contour>
  </outline>
</glyph>
<glyph name="periodcentered" format="2">
  <advance width="353"/>
  <unicode hex="00B7"/>
  <outline>
    <contour>
      <point x="177" y="230" type="curve" smooth="yes"/>
      <point x="226" y="230"/>
      <point x="278" y="257"/>
      <point x="278" y="331" type="curve" smooth="yes"/>
      <point x="278" y="408"/>
      <point x="226" y="431"/>
      <point x="177" y="431" type="curve" smooth="yes"/>
      <point x="127" y="431"/>
      <point x="75" y="408"/>
      <point x="75" y="331" type="curve" smooth="yes"/>
      <point x="75" y="257"/>
      <point x="127" y="230"/>
    </contour>
  </outline>
</glyph>
<glyph name="onesuperior" format="2">
  <advance width="406"/>
  <unicode hex="00B9"/>
  <outline>
    <contour>
      <point x="65" y="298" type="line"/>
      <point x="368" y="298" type="line"/>
      <point x="368" y="404" type="line"/>
      <point x="283" y="404" type="line"/>
      <point x="283" y="706" type="line"/>
      <point x="189" y="713" type="line"/>
      <point x="27" y="613" type="line"/>
      <point x="86" y="527" type="line"/>
      <point x="160" y="581" type="line"/>
      <point x="164" y="581" type="line"/>
      <point x="164" y="404" type="line"/>
      <point x="65" y="404" type="line"/>
    </contour>
  </outline>
</glyph>
<glyph name="ordmasculine" format="2">
  <advance width="378"/>
  <unicode hex="00BA"/>
  <outline>
    <contour>
      <point x="188" y="289" type="curve" smooth="yes"/>
      <point x="333" y="289"/>
      <point x="377" y="371"/>
      <point x="377" y="501" type="curve" smooth="yes"/>
      <point x="377" y="633"/>
      <point x="333" y="714"/>
      <point x="188" y="714" type="curve" smooth="yes"/>
      <point x="47" y="714"/>
      <point x="1" y="633"/>
      <point x="1" y="501" type="curve" smooth="yes"/>
      <point x="1" y="371"/>
      <point x="47" y="289"/>
    </contour>
    <contour>
      <point x="188" y="396" type="curve" smooth="yes"/>
      <point x="145" y="396"/>
      <point x="128" y="413"/>
      <point x="128" y="501" type="curve" smooth="yes"/>
      <point x="128" y="592"/>
      <point x="145" y="608"/>
      <point x="188" y="608" type="curve" smooth="yes"/>
      <point x="233" y="608"/>
      <point x="251" y="592"/>
      <point x="251" y="501" type="curve" smooth="yes"/>
      <point x="251" y="413"/>
      <point x="233" y="396"/>
    </contour>
  </outline>
</glyph>
<glyph name="Igrave" format="2">
  <advance width="324"/>
  <unicode hex="00CC"/>
  <outline>
    <contour>
      <point x="271" y="751" type="line"/>
      <point x="289" y="832" type="line"/>
      <point x="5" y="909" type="line"/>
      <point x="-21" y="799" type="line"/>
    </contour>
    <component base="I"/>
  </outline>
</glyph>
<glyph name="multiply" format="2">
  <advance width="591"/>
  <unicode hex="00D7"/>
  <outline>
    <contour>
      <point x="126" y="29" type="line"/>
      <point x="295" y="198" type="line"/>
      <point x="463" y="30" type="line"/>
      <point x="556" y="122" type="line"/>
      <point x="387" y="291" type="line"/>
      <point x="559" y="462" type="line"/>
      <point x="466" y="555" type="line"/>
      <point x="295" y="383" type="line"/>
      <point x="125" y="553" type="line"/>
      <point x="32" y="460" type="line"/>
      <point x="202" y="291" type="line"/>
      <point x="33" y="122" type="line"/>
    </contour>
  </outline>
</glyph>
<glyph name="Thorn" format="2">
  <advance width="631"/>
  <unicode hex="00DE"/>
  <outline>
    <contour>
      <point x="81" y="0" type="line"/>
      <point x="238" y="0" type="line"/>
      <point x="238" y="123" type="line"/>
      <point x="238" y="123"/>
      <point x="282" y="120"/>
      <point x="334" y="120" type="curve" smooth="yes"/>
      <point x="462" y="120"/>
      <point x="590" y="171"/>
      <point x="590" y="377" type="curve" smooth="yes"/>
      <point x="590" y="541"/>
      <point x="505" y="624"/>
      <point x="357" y="624" type="curve" smooth="yes"/>
      <point x="320" y="624"/>
      <point x="278" y="622"/>
      <point x="238" y="620" type="curve"/>
      <point x="238" y="703" type="line"/>
      <point x="81" y="703" type="line"/>
      <point x="85" y="366" type="line"/>
    </contour>
    <contour>
      <point x="342" y="252" type="curve" smooth="yes"/>
      <point x="286" y="252"/>
      <point x="238" y="259"/>
      <point x="238" y="259" type="curve"/>
      <point x="238" y="492" type="line"/>
      <point x="264" y="495"/>
      <point x="299" y="497"/>
      <point x="331" y="497" type="curve" smooth="yes"/>
      <point x="374" y="497"/>
      <point x="397" y="491"/>
      <point x="405" y="483" type="curve" smooth="yes"/>
      <point x="414" y="475"/>
      <point x="428" y="465"/>
      <point x="428" y="385" type="curve" smooth="yes"/>
      <point x="428" y="317"/>
      <point x="422" y="281"/>
      <point x="406" y="267" type="curve" smooth="yes"/>
      <point x="397" y="259"/>
      <point x="377" y="252"/>
    </contour>
  </outline>
</glyph>
<glyph name="igrave" format="2">
  <advance width="323"/>
  <unicode hex="00EC"/>
  <outline>
    <contour>
      <point x="271" y="646" type="line"/>
      <point x="290" y="729" type="line"/>
      <point x="12" y="811" type="line"/>
      <point x="-14" y="703" type="line"/>
    </contour>
    <component base="dotlessi"/>
  </outline>
</glyph>
<glyph name="eth" format="2">
  <advance width="625"/>
  <unicode hex="00F0"/>
  <outline>
    <contour>
      <point x="310" y="-13" type="curve" smooth="yes"/>
      <point x="508" y="-13"/>
      <point x="570" y="118"/>
      <point x="570" y="317" type="curve" smooth="yes"/>
      <point x="570" y="441"/>
      <point x="546" y="564"/>
      <point x="497" y="637" type="curve"/>
      <point x="539" y="652" type="line"/>
      <point x="532" y="746" type="line"/>
      <point x="435" y="711" type="line"/>
      <point x="408" y="734"/>
      <point x="377" y="755"/>
      <point x="342" y="774" type="curve"/>
      <point x="253" y="705" type="line"/>
      <point x="275" y="693"/>
      <point x="301" y="677"/>
      <point x="316" y="664" type="curve"/>
      <point x="237" y="639" type="line"/>
      <point x="245" y="549" type="line"/>
      <point x="375" y="594" type="line"/>
      <point x="405" y="560"/>
      <point x="430" y="523"/>
      <point x="444" y="484" type="curve"/>
      <point x="438" y="481" type="line"/>
      <point x="409" y="500"/>
      <point x="365" y="522"/>
      <point x="292" y="522" type="curve" smooth="yes"/>
      <point x="119" y="522"/>
      <point x="54" y="399"/>
      <point x="54" y="254" type="curve" smooth="yes"/>
      <point x="54" y="110"/>
      <point x="119" y="-13"/>
    </contour>
    <contour>
      <point x="313" y="105" type="curve" smooth="yes"/>
      <point x="235" y="105"/>
      <point x="212" y="143"/>
      <point x="212" y="254" type="curve" smooth="yes"/>
      <point x="212" y="366"/>
      <point x="236" y="404"/>
      <point x="313" y="404" type="curve" smooth="yes"/>
      <point x="389" y="404"/>
      <point x="412" y="366"/>
      <point x="412" y="254" type="curve" smooth="yes"/>
      <point x="412" y="143"/>
      <point x="390" y="105"/>
    </contour>
  </outline>
</glyph>
<glyph name="Hbar" format="2">
  <advance width="706"/>
  <unicode hex="0126"/>
  <outline>
    <contour>
      <point x="679" y="609" type="line"/>
      <point x="21" y="609" type="line"/>
      <point x="21" y="497" type="line"/>
      <point x="679" y="497" type="line"/>
    </contour>
    <component base="H"/>
  </outline>
</glyph>
<glyph name="hbar" format="2">
  <advance width="644"/>
  <unicode hex="0127"/>
  <outline>
    <contour>
      <point x="87" y="761" type="line"/>
      <point x="87" y="0" type="line"/>
      <point x="244" y="0" type="line"/>
      <point x="244" y="422" type="line"/>
      <point x="244" y="422"/>
      <point x="332" y="458"/>
      <point x="371" y="458" type="curve" smooth="yes"/>
      <point x="390" y="458"/>
      <point x="405" y="452"/>
      <point x="412" y="443" type="curve" smooth="yes"/>
      <point x="423" y="428"/>
      <point x="429" y="403"/>
      <point x="429" y="348" type="curve" smooth="yes"/>
      <point x="429" y="0" type="line"/>
      <point x="578" y="0" type="line"/>
      <point x="578" y="375" type="line" smooth="yes"/>
      <point x="578" y="499"/>
      <point x="549" y="593"/>
      <point x="425" y="593" type="curve" smooth="yes"/>
      <point x="357" y="593"/>
      <point x="284" y="561"/>
      <point x="244" y="541" type="curve"/>
      <point x="244" y="761" type="line"/>
    </contour>
    <contour>
      <point x="-3" y="609" type="line"/>
      <point x="181" y="612" type="line"/>
      <point x="373" y="609" type="line"/>
      <point x="373" y="715" type="line"/>
      <point x="-3" y="715" type="line"/>
    </contour>
  </outline>
</glyph>
<glyph name="Itilde" format="2">
  <advance width="324"/>
  <unicode hex="0128"/>
  <outline>
    <contour>
      <point x="260" y="746" type="curve" smooth="yes"/>
      <point x="309" y="746"/>
      <point x="341" y="782"/>
      <point x="343" y="871" type="curve"/>
      <point x="268" y="883" type="line"/>
      <point x="268" y="883"/>
      <point x="255" y="843"/>
      <point x="241" y="843" type="curve" smooth="yes"/>
      <point x="216" y="843"/>
      <point x="116" y="886"/>
      <point x="64" y="886" type="curve" smooth="yes"/>
      <point x="16" y="886"/>
      <point x="-18" y="850"/>
      <point x="-20" y="760" type="curve"/>
      <point x="56" y="750" type="line"/>
      <point x="56" y="750"/>
      <point x="70" y="791"/>
      <point x="84" y="791" type="curve" smooth="yes"/>
      <point x="108" y="791"/>
      <point x="210" y="746"/>
    </contour>
    <component base="I"/>
  </outline>
</glyph>
<glyph name="imacron" format="2">
  <advance width="330"/>
  <unicode hex="012B"/>
  <outline>
    <contour>
      <point x="0" y="668" type="line"/>
      <point x="330" y="668" type="line"/>
      <point x="330" y="764" type="line"/>
      <point x="0" y="764" type="line"/>
    </contour>
    <component base="dotlessi" xOffset="4"/>
  </outline>
</glyph>
<glyph name="Jcircumflex" format="2">
  <advance width="363"/>
  <unicode hex="0134"/>
  <outline>
    <contour>
      <point x="39" y="750" type="line"/>
      <point x="189" y="803" type="line"/>
      <point x="196" y="803" type="line"/>
      <point x="345" y="750" type="line"/>
      <point x="378" y="815" type="line"/>
      <point x="229" y="905" type="line"/>
      <point x="156" y="905" type="line"/>
      <point x="6" y="815" type="line"/>
    </contour>
    <component base="J"/>
  </outline>
</glyph>
<glyph name="Lslash" format="2">
  <advance width="485"/>
  <unicode hex="0141"/>
  <outline>
    <contour>
      <point x="14" y="216" type="line"/>
      <point x="387" y="426" type="line"/>
      <point x="387" y="535" type="line"/>
      <point x="14" y="324" type="line"/>
    </contour>
    <component base="L"/>
  </outline>
</glyph>
<glyph name="lslash" format="2">
  <advance width="365"/>
  <unicode hex="0142"/>
  <outline>
    <contour>
      <point x="105" y="0" type="line"/>
      <point x="260" y="0" type="line"/>
      <point x="260" y="395" type="line"/>
      <point x="358" y="454" type="line"/>
      <point x="358" y="569" type="line"/>
      <point x="260" y="509" type="line"/>
      <point x="260" y="761" type="line"/>
      <point x="105" y="761" type="line"/>
      <point x="105" y="416" type="line"/>
      <point x="7" y="357" type="line"/>
      <point x="7" y="243" type="line"/>
      <point x="105" y="302" type="line"/>
    </contour>
  </outline>
</glyph>
<glyph name="oe" format="2">
  <advance width="966"/>
  <unicode hex="0153"/>
  <anchor x="483" y="0" name="bottom"/>
  <anchor x="483" y="588" name="top"/>
  <outline>
    <contour>
      <point x="307" y="-13" type="curve" smooth="yes"/>
      <point x="391" y="-13"/>
      <point x="449" y="9"/>
      <point x="489" y="50" type="curve"/>
      <point x="493" y="50" type="line"/>
      <point x="540" y="6"/>
      <point x="604" y="-13"/>
      <point x="682" y="-13" type="curve" smooth="yes"/>
      <point x="796" y="-13"/>
      <point x="912" y="41"/>
      <point x="912" y="41" type="curve"/>
      <point x="874" y="153" type="line"/>
      <point x="874" y="153"/>
      <point x="742" y="110"/>
      <point x="664" y="110" type="curve" smooth="yes"/>
      <point x="635" y="110"/>
      <point x="615" y="117"/>
      <point x="602" y="129" type="curve" smooth="yes"/>
      <point x="588" y="141"/>
      <point x="573" y="171"/>
      <point x="571" y="236" type="curve" smooth="yes"/>
      <point x="571" y="240" type="line"/>
      <point x="923" y="240" type="line"/>
      <point x="923" y="323" type="line" smooth="yes"/>
      <point x="923" y="528"/>
      <point x="835" y="601"/>
      <point x="680" y="601" type="curve" smooth="yes"/>
      <point x="605" y="601"/>
      <point x="541" y="583"/>
      <point x="493" y="538" type="curve"/>
      <point x="489" y="538" type="line"/>
      <point x="448" y="579"/>
      <point x="391" y="601"/>
      <point x="307" y="601" type="curve" smooth="yes"/>
      <point x="112" y="601"/>
      <point x="48" y="483"/>
      <point x="48" y="294" type="curve" smooth="yes"/>
      <point x="48" y="105"/>
      <point x="112" y="-13"/>
    </contour>
    <contour>
      <point x="307" y="105" type="curve" smooth="yes"/>
      <point x="229" y="105"/>
      <point x="206" y="141"/>
      <point x="206" y="294" type="curve" smooth="yes"/>
      <point x="206" y="448"/>
      <point x="230" y="483"/>
      <point x="307" y="483" type="curve" smooth="yes"/>
      <point x="383" y="483"/>
      <point x="406" y="448"/>
      <point x="406" y="294" type="curve" smooth="yes"/>
      <point x="406" y="141"/>
      <point x="384" y="105"/>
    </contour>
    <contour>
      <point x="572" y="352" type="line"/>
      <point x="574" y="401"/>
      <point x="583" y="436"/>
      <point x="598" y="453" type="curve" smooth="yes"/>
      <point x="611" y="468"/>
      <point x="633" y="479"/>
      <point x="680" y="479" type="curve" smooth="yes"/>
      <point x="723" y="479"/>
      <point x="738" y="468"/>
      <point x="747" y="457" type="curve" smooth="yes"/>
      <point x="759" y="441"/>
      <point x="764" y="407"/>
      <point x="765" y="356" type="curve"/>
    </contour>
  </outline>
</glyph>
<glyph name="dotlessj" format="2">
  <advance width="346"/>
  <unicode hex="0237"/>
  <anchor x="173" y="-166" name="bottom"/>
  <anchor x="181" y="588" name="top"/>
  <outline>
    <contour>
      <point x="69" y="-179" type="curve" smooth="yes"/>
      <point x="169" y="-179"/>
      <point x="262" y="-118"/>
      <point x="262" y="69" type="curve" smooth="yes"/>
      <point x="262" y="588" type="line"/>
      <point x="107" y="588" type="line"/>
      <point x="107" y="70" type="line" smooth="yes"/>
      <point x="107" y="-33"/>
      <point x="104" y="-51"/>
      <point x="61" y="-51" type="curve" smooth="yes"/>
      <point x="32" y="-51"/>
      <point x="-22" y="-43"/>
      <point x="-22" y="-43" type="curve"/>
      <point x="-38" y="-169" type="line"/>
      <point x="-38" y="-169"/>
      <point x="28" y="-179"/>
    </contour>
  </outline>
</glyph>
<glyph name="caron" format="2">
  <advance width="407"/>
  <unicode hex="02C7"/>
  <outline>
    <contour>
      <point x="167" y="651" type="line"/>
      <point x="240" y="651" type="line"/>
      <point x="407" y="756" type="line"/>
      <point x="374" y="817" type="line"/>
      <point x="207" y="753" type="line"/>
      <point x="200" y="753" type="line"/>
      <point x="33" y="817" type="line"/>
      <point x="0" y="756" type="line"/>
    </contour>
  </outline>
</glyph>
<glyph name="breve" format="2">
  <advance width="388"/>
  <unicode hex="02D8"/>
  <anchor x="194" y="588" name="_top"/>
  <anchor x="194" y="786" name="top"/>
  <outline>
    <contour>
      <point x="194" y="643" type="curve" smooth="yes"/>
      <point x="295" y="643"/>
      <point x="378" y="684"/>
      <point x="388" y="806" type="curve"/>
      <point x="309" y="815" type="line"/>
      <point x="296" y="757"/>
      <point x="257" y="743"/>
      <point x="194" y="743" type="curve" smooth="yes"/>
      <point x="131" y="743"/>
      <point x="92" y="757"/>
      <point x="79" y="815" type="curve"/>
      <point x="0" y="806" type="line"/>
      <point x="9" y="684"/>
      <point x="93" y="643"/>
    </contour>
  </outline>
</glyph>
<glyph name="commaturnedabovecomb" format="2">
  <unicode hex="0312"/>
  <anchor x="70" y="522" name="_top"/>
  <anchor x="70" y="775" name="top"/>
  <outline>
    <contour>
      <point x="28" y="775" type="curve"/>
      <point x="0" y="728" type="line"/>
      <point x="22" y="713"/>
      <point x="33" y="672"/>
      <point x="33" y="609" type="curve" smooth="yes"/>
      <point x="33" y="574" type="line"/>
      <point x="139" y="574" type="line"/>
      <point x="139" y="601" type="line" smooth="yes"/>
      <point x="139" y="709"/>
      <point x="79" y="761"/>
    </contour>
  </outline>
</glyph>
<glyph name="dotbelowcomb" format="2">
  <unicode hex="0323"/>
  <anchor x="79" y="0" name="_top"/>
  <anchor x="79" y="-156" name="top"/>
  <outline>
    <contour>
      <point x="158" y="-48" type="line"/>
      <point x="0" y="-48" type="line"/>
      <point x="0" y="-156" type="line"/>
      <point x="158" y="-156" type="line"/>
    </contour>
  </outline>
</glyph>
<glyph name="commaaccentcomb" format="2">
  <unicode hex="0326"/>
  <anchor x="70" y="0" name="_bottom"/>
  <anchor x="70" y="-253" name="bottom"/>
  <outline>
    <contour>
      <point x="28" y="-253" type="line"/>
      <point x="79" y="-239"/>
      <point x="139" y="-187"/>
      <point x="139" y="-79" type="curve" smooth="yes"/>
      <point x="139" y="-52" type="line"/>
      <point x="33" y="-52" type="line"/>
      <point x="33" y="-87" type="line" smooth="yes"/>
      <point x="33" y="-150"/>
      <point x="22" y="-191"/>
      <point x="0" y="-206" type="curve"/>
    </contour>
  </outline>
</glyph>
<glyph name="cedillacomb" format="2">
  <unicode hex="0327"/>
  <anchor x="104" y="0" name="_bottom"/>
  <anchor x="104" y="-179" name="bottom"/>
  <outline>
    <contour>
      <point x="87" y="-179" type="curve" smooth="yes"/>
      <point x="164" y="-179"/>
      <point x="208" y="-136"/>
      <point x="208" y="-68" type="curve" smooth="yes"/>
      <point x="208" y="-13"/>
      <point x="187" y="37"/>
      <point x="186" y="40" type="curve"/>
      <point x="110" y="20" type="line"/>
      <point x="111" y="15"/>
      <point x="121" y="-27"/>
      <point x="121" y="-58" type="curve" smooth="yes"/>
      <point x="121" y="-85"/>
      <point x="106" y="-88"/>
      <point x="75" y="-88" type="curve" smooth="yes"/>
      <point x="45" y="-88"/>
      <point x="0" y="-83"/>
      <point x="0" y="-83" type="curve"/>
      <point x="0" y="-170" type="line"/>
      <point x="0" y="-170"/>
      <point x="42" y="-179"/>
    </contour>
  </outline>
</glyph>
<glyph name="Dje-cy" format="2">
  <advance width="759"/>
  <unicode hex="0402"/>
  <anchor x="599" y="-166" name="bottom"/>
  <anchor x="607" y="588" name="top"/>
  <outline>
    <contour>
      <point x="151" y="0" type="line"/>
      <point x="306" y="0" type="line"/>
      <point x="306" y="328" type="line"/>
      <point x="288" y="293" type="line"/>
      <point x="319" y="308"/>
      <point x="376" y="328"/>
      <point x="441" y="328" type="curve" smooth="yes"/>
      <point x="494" y="328"/>
      <point x="510" y="322"/>
      <point x="517" y="313" type="curve" smooth="yes"/>
      <point x="527" y="300"/>
      <point x="533" y="270"/>
      <point x="533" y="218" type="curve" smooth="yes"/>
      <point x="533" y="47" type="line"/>
      <point x="688" y="77" type="line"/>
      <point x="688" y="245" type="line" smooth="yes"/>
      <point x="688" y="368"/>
      <point x="659" y="463"/>
      <point x="517" y="463" type="curve" smooth="yes"/>
      <point x="401" y="463"/>
      <point x="311" y="421"/>
      <point x="283" y="407" type="curve"/>
      <point x="306" y="397" type="line"/>
      <point x="306" y="703" type="line"/>
      <point x="151" y="703" type="line"/>
    </contour>
    <contour>
      <point x="476" y="703" type="line"/>
      <point x="0" y="703" type="line"/>
      <point x="0" y="569" type="line"/>
      <point x="243" y="571" type="line"/>
      <point x="476" y="569" type="line"/>
    </contour>
    <contour>
      <point x="495" y="-166" type="curve" smooth="yes"/>
      <point x="595" y="-166"/>
      <point x="688" y="-105"/>
      <point x="688" y="64" type="curve" smooth="yes"/>
      <point x="688" y="166" type="line"/>
      <point x="533" y="166" type="line"/>
      <point x="533" y="83" type="line" smooth="yes"/>
      <point x="533" y="-20"/>
      <point x="530" y="-38"/>
      <point x="487" y="-38" type="curve" smooth="yes"/>
      <point x="458" y="-38"/>
      <point x="404" y="-30"/>
      <point x="404" y="-30" type="curve"/>
      <point x="388" y="-156" type="line"/>
      <point x="388" y="-156"/>
      <point x="454" y="-166"/>
    </contour>
  </outline>
</glyph>
<glyph name="E-cy" format="2">
  <advance width="618"/>
  <unicode hex="0404"/>
  <anchor x="292" y="0" name="bottom"/>
  <anchor x="324" y="695" name="top"/>
  <outline>
    <contour>
      <point x="499" y="293" type="line"/>
      <point x="499" y="427" type="line"/>
      <point x="167" y="427" type="line"/>
      <point x="167" y="293" type="line"/>
    </contour>
    <component base="C"/>
  </outline>
</glyph>
<glyph name="Tshe-cy" format="2">
  <advance width="754"/>
  <unicode hex="040B"/>
  <outline>
    <contour>
      <point x="151" y="0" type="line"/>
      <point x="306" y="0" type="line"/>
      <point x="306" y="328" type="line"/>
      <point x="288" y="293" type="line"/>
      <point x="319" y="308"/>
      <point x="376" y="328"/>
      <point x="441" y="328" type="curve" smooth="yes"/>
      <point x="494" y="328"/>
      <point x="510" y="322"/>
      <point x="517" y="313" type="curve" smooth="yes"/>
      <point x="527" y="300"/>
      <point x="533" y="270"/>
      <point x="533" y="218" type="curve" smooth="yes"/>
      <point x="533" y="0" type="line"/>
      <point x="688" y="0" type="line"/>
      <point x="688" y="245" type="line" smooth="yes"/>
      <point x="688" y="368"/>
      <point x="659" y="463"/>
      <point x="517" y="463" type="curve" smooth="yes"/>
      <point x="401" y="463"/>
      <point x="311" y="421"/>
      <point x="283" y="407" type="curve"/>
      <point x="306" y="397" type="line"/>
      <point x="306" y="703" type="line"/>
      <point x="151" y="703" type="line"/>
    </contour>
    <contour>
      <point x="476" y="703" type="line"/>
      <point x="0" y="703" type="line"/>
      <point x="0" y="569" type="line"/>
      <point x="243" y="571" type="line"/>
      <point x="476" y="569" type="line"/>
    </contour>
  </outline>
</glyph>
<glyph name="Be-cy" format="2">
  <advance width="625"/>
  <unicode hex="0411"/>
  <outline>
    <contour>
      <point x="159" y="429" type="line"/>
      <point x="179" y="431"/>
      <point x="234" y="443"/>
      <point x="302" y="443" type="curve" smooth="yes"/>
      <point x="488" y="443"/>
      <point x="587" y="395"/>
      <point x="587" y="207" type="curve" smooth="yes"/>
      <point x="587" y="65"/>
      <point x="519" y="-13"/>
      <point x="300" y="-13" type="curve" smooth="yes"/>
      <point x="208" y="-13"/>
      <point x="85" y="1"/>
      <point x="85" y="1" type="curve"/>
      <point x="89" y="405" type="line"/>
    </contour>
    <contour>
      <point x="306" y="313" type="curve" smooth="yes"/>
      <point x="253" y="313"/>
      <point x="182" y="303"/>
      <point x="157" y="298" type="curve"/>
      <point x="166" y="317" type="line"/>
      <point x="169" y="22" type="line"/>
      <point x="158" y="139" type="line"/>
      <point x="173" y="134"/>
      <point x="235" y="125"/>
      <point x="299" y="125" type="curve" smooth="yes"/>
      <point x="358" y="125"/>
      <point x="384" y="129"/>
      <point x="397" y="138" type="curve" smooth="yes"/>
      <point x="411" y="148"/>
      <point x="424" y="177"/>
      <point x="424" y="212" type="curve" smooth="yes"/>
      <point x="424" y="239"/>
      <point x="423" y="273"/>
      <point x="404" y="291" type="curve" smooth="yes"/>
      <point x="383" y="311"/>
      <point x="362" y="313"/>
    </contour>
    <component base="Ge-cy"/>
  </outline>
</glyph>
<glyph name="Ii-cy" format="2">
  <advance width="718"/>
  <unicode hex="0418"/>
  <anchor x="360" y="0" name="bottom"/>
  <anchor x="349" y="703" name="top"/>
  <outline>
    <contour>
      <point x="274" y="0" type="line"/>
      <point x="525" y="574" type="line"/>
      <point x="426" y="511" type="line"/>
      <point x="542" y="511" type="line"/>
      <point x="542" y="703" type="line"/>
      <point x="443" y="703" type="line"/>
      <point x="193" y="126" type="line"/>
      <point x="292" y="189" type="line"/>
      <point x="176" y="189" type="line"/>
      <point x="176" y="0" type="line"/>
    </contour>
    <contour>
      <point x="211" y="0" type="line"/>
      <point x="226" y="703" type="line"/>
      <point x="83" y="703" type="line"/>
      <point x="83" y="0" type="line"/>
    </contour>
    <contour>
      <point x="507" y="703" type="line"/>
      <point x="492" y="0" type="line"/>
      <point x="635" y="0" type="line"/>
      <point x="635" y="703" type="line"/>
    </contour>
  </outline>
</glyph>
<glyph name="U-cy" format="2">
  <advance width="651"/>
  <unicode hex="0423"/>
  <anchor x="326" y="703" name="top"/>
  <outline>
    <contour>
      <point x="253" y="-14" type="curve" smooth="yes"/>
      <point x="297" y="-14"/>
      <point x="331" y="-8"/>
      <point x="358" y="11" type="curve" smooth="yes"/>
      <point x="399" y="38"/>
      <point x="423" y="94"/>
      <point x="455" y="195" type="curve" smooth="yes"/>
      <point x="619" y="703" type="line"/>
      <point x="458" y="703" type="line"/>
      <point x="347" y="233" type="line"/>
      <point x="340" y="213"/>
      <point x="333" y="192"/>
      <point x="326" y="172" type="curve" smooth="yes"/>
      <point x="316" y="142"/>
      <point x="289" y="119"/>
      <point x="253" y="119" type="curve" smooth="yes"/>
      <point x="215" y="119"/>
      <point x="152" y="133"/>
      <point x="99" y="150" type="curve"/>
      <point x="58" y="30" type="line"/>
      <point x="121" y="0"/>
      <point x="196" y="-14"/>
    </contour>
    <contour>
      <point x="241" y="43" type="line"/>
      <point x="400" y="242" type="line"/>
      <point x="271" y="242" type="line"/>
      <point x="360" y="175" type="line"/>
      <point x="214" y="703" type="line"/>
      <point x="55" y="703" type="line"/>
      <point x="280" y="66" type="line"/>
    </contour>
    <contour>
      <point x="253" y="-14" type="curve" smooth="yes"/>
      <point x="297" y="-14"/>
      <point x="331" y="-8"/>
      <point x="358" y="11" type="curve" smooth="yes"/>
      <point x="399" y="38"/>
      <point x="423" y="94"/>
      <point x="455" y="195" type="curve" smooth="yes"/>
      <point x="619" y="703" type="line"/>
      <point x="458" y="703" type="line"/>
      <point x="347" y="233" type="line"/>
      <point x="340" y="213"/>
      <point x="333" y="192"/>
      <point x="326" y="172" type="curve" smooth="yes"/>
      <point x="316" y="142"/>
      <point x="289" y="119"/>
      <point x="253" y="119" type="curve" smooth="yes"/>
      <point x="215" y="119"/>
      <point x="152" y="133"/>
      <point x="99" y="150" type="curve"/>
      <point x="58" y="30" type="line"/>
      <point x="121" y="0"/>
      <point x="196" y="-14"/>
    </contour>
    <contour>
      <point x="241" y="43" type="line"/>
      <point x="400" y="242" type="line"/>
      <point x="271" y="242" type="line"/>
      <point x="360" y="175" type="line"/>
      <point x="214" y="703" type="line"/>
      <point x="55" y="703" type="line"/>
      <point x="280" y="66" type="line"/>
    </contour>
  </outline>
</glyph>
<glyph name="Ef-cy" format="2">
  <advance width="836"/>
  <unicode hex="0424"/>
  <outline>
    <contour>
      <point x="418" y="60" type="curve" smooth="yes"/>
      <point x="692" y="60"/>
      <point x="798" y="129"/>
      <point x="798" y="349" type="curve" smooth="yes"/>
      <point x="798" y="555"/>
      <point x="707" y="635"/>
      <point x="418" y="635" type="curve" smooth="yes"/>
      <point x="144" y="635"/>
      <point x="38" y="566"/>
      <point x="38" y="349" type="curve" smooth="yes"/>
      <point x="38" y="141"/>
      <point x="129" y="60"/>
    </contour>
    <contour>
      <point x="418" y="172" type="curve" smooth="yes"/>
      <point x="238" y="172"/>
      <point x="197" y="193"/>
      <point x="197" y="346" type="curve" smooth="yes"/>
      <point x="197" y="499"/>
      <point x="229" y="524"/>
      <point x="418" y="524" type="curve" smooth="yes"/>
      <point x="616" y="524"/>
      <point x="639" y="499"/>
      <point x="639" y="346" type="curve" smooth="yes"/>
      <point x="639" y="193"/>
      <point x="616" y="172"/>
    </contour>
    <component base="I" xOffset="256"/>
  </outline>
</glyph>
<glyph name="Tse-cy" format="2">
  <advance width="678"/>
  <unicode hex="0426"/>
  <outline>
    <contour>
      <point x="498" y="80" type="line"/>
      <point x="510" y="-166" type="line"/>
      <point x="658" y="-166" type="line"/>
      <point x="658" y="82" type="line"/>
    </contour>
    <contour>
      <point x="83" y="0" type="line"/>
      <point x="593" y="0" type="line"/>
      <point x="593" y="703" type="line"/>
      <point x="436" y="703" type="line"/>
      <point x="441" y="64" type="line"/>
      <point x="511" y="134" type="line"/>
      <point x="165" y="134" type="line"/>
      <point x="235" y="64" type="line"/>
      <point x="240" y="703" type="line"/>
      <point x="83" y="703" type="line"/>
    </contour>
  </outline>
</glyph>
<glyph name="Che-cy" format="2">
  <advance width="685"/>
  <unicode hex="0427"/>
  <outline>
    <contour>
      <point x="602" y="703" type="line"/>
      <point x="447" y="703" type="line"/>
      <point x="447" y="371" type="line"/>
      <point x="465" y="406" type="line"/>
      <point x="434" y="391"/>
      <point x="357" y="371"/>
      <point x="301" y="371" type="curve" smooth="yes"/>
      <point x="258" y="371"/>
      <point x="240" y="376"/>
      <point x="231" y="387" type="curve" smooth="yes"/>
      <point x="219" y="401"/>
      <point x="220" y="418"/>
      <point x="220" y="461" type="curve" smooth="yes"/>
      <point x="220" y="703" type="line"/>
      <point x="65" y="703" type="line"/>
      <point x="65" y="454" type="line" smooth="yes"/>
      <point x="65" y="331"/>
      <point x="94" y="236"/>
      <point x="236" y="236" type="curve" smooth="yes"/>
      <point x="352" y="236"/>
      <point x="442" y="278"/>
      <point x="482" y="289" type="curve"/>
      <point x="447" y="302" type="line"/>
      <point x="447" y="0" type="line"/>
      <point x="602" y="0" type="line"/>
    </contour>
  </outline>
</glyph>
<glyph name="Sha-cy" format="2">
  <advance width="1031"/>
  <unicode hex="0428"/>
  <outline>
    <contour>
      <point x="83" y="0" type="line"/>
      <point x="948" y="0" type="line"/>
      <point x="948" y="703" type="line"/>
      <point x="791" y="703" type="line"/>
      <point x="796" y="358" type="line"/>
      <point x="796" y="64" type="line"/>
      <point x="866" y="134" type="line"/>
      <point x="522" y="134" type="line"/>
      <point x="593" y="64" type="line"/>
      <point x="589" y="358" type="line"/>
      <point x="594" y="703" type="line"/>
      <point x="437" y="703" type="line"/>
      <point x="442" y="358" type="line"/>
      <point x="438" y="64" type="line"/>
      <point x="509" y="134" type="line"/>
      <point x="165" y="134" type="line"/>
      <point x="235" y="64" type="line"/>
      <point x="235" y="358" type="line"/>
      <point x="240" y="703" type="line"/>
      <point x="83" y="703" type="line"/>
    </contour>
  </outline>
</glyph>
<glyph name="Hardsign-cy" format="2">
  <advance width="671"/>
  <unicode hex="042A"/>
  <outline>
    <contour>
      <point x="134" y="0" type="curve"/>
      <point x="137" y="362" type="line"/>
      <point x="134" y="703" type="line"/>
      <point x="286" y="703" type="line"/>
      <point x="286" y="414" type="line"/>
      <point x="249" y="455" type="line"/>
      <point x="275" y="456"/>
      <point x="312" y="462"/>
      <point x="353" y="462" type="curve" smooth="yes"/>
      <point x="539" y="462"/>
      <point x="638" y="414"/>
      <point x="638" y="221" type="curve" smooth="yes"/>
      <point x="638" y="65"/>
      <point x="570" y="-13"/>
      <point x="351" y="-13" type="curve" smooth="yes"/>
      <point x="279" y="-13"/>
      <point x="148" y="-2"/>
    </contour>
    <contour>
      <point x="357" y="332" type="curve" smooth="yes"/>
      <point x="321" y="332"/>
      <point x="276" y="327"/>
      <point x="241" y="325" type="curve"/>
      <point x="285" y="365" type="line"/>
      <point x="290" y="57" type="line"/>
      <point x="250" y="129" type="line"/>
      <point x="276" y="128"/>
      <point x="313" y="125"/>
      <point x="350" y="125" type="curve" smooth="yes"/>
      <point x="409" y="125"/>
      <point x="435" y="129"/>
      <point x="448" y="138" type="curve" smooth="yes"/>
      <point x="462" y="148"/>
      <point x="475" y="177"/>
      <point x="475" y="226" type="curve" smooth="yes"/>
      <point x="475" y="258"/>
      <point x="474" y="292"/>
      <point x="455" y="310" type="curve" smooth="yes"/>
      <point x="434" y="330"/>
      <point x="413" y="332"/>
    </contour>
    <contour>
      <point x="0" y="569" type="line"/>
      <point x="0" y="703" type="line"/>
      <point x="256" y="703" type="line"/>
      <point x="163" y="571" type="line"/>
    </contour>
  </outline>
</glyph>
<glyph name="Ia-cy" format="2">
  <advance width="656"/>
  <unicode hex="042F"/>
  <anchor x="345" y="0" name="bottom"/>
  <anchor x="345" y="703" name="top"/>
  <outline>
    <contour>
      <point x="49" y="0" type="line"/>
      <point x="215" y="0" type="line"/>
      <point x="352" y="334" type="line"/>
      <point x="396" y="295" type="line"/>
      <point x="166" y="311" type="line"/>
      <point x="205" y="324" type="line"/>
    </contour>
    <contour>
      <point x="573" y="0" type="line"/>
      <point x="569" y="328" type="line"/>
      <point x="573" y="702" type="line"/>
      <point x="573" y="702"/>
      <point x="412" y="716"/>
      <point x="285" y="716" type="curve" smooth="yes"/>
      <point x="140" y="716"/>
      <point x="57" y="633"/>
      <point x="57" y="469" type="curve" smooth="yes"/>
      <point x="57" y="263"/>
      <point x="182" y="212"/>
      <point x="322" y="212" type="curve" smooth="yes"/>
      <point x="373" y="212"/>
      <point x="416" y="215"/>
      <point x="416" y="215" type="curve"/>
      <point x="416" y="0" type="line"/>
    </contour>
    <contour>
      <point x="319" y="337" type="curve" smooth="yes"/>
      <point x="272" y="337"/>
      <point x="247" y="344"/>
      <point x="238" y="352" type="curve" smooth="yes"/>
      <point x="223" y="366"/>
      <point x="220" y="402"/>
      <point x="220" y="477" type="curve" smooth="yes"/>
      <point x="220" y="559"/>
      <point x="233" y="568"/>
      <point x="242" y="577" type="curve" smooth="yes"/>
      <point x="250" y="585"/>
      <point x="272" y="591"/>
      <point x="327" y="591" type="curve" smooth="yes"/>
      <point x="358" y="591"/>
      <point x="391" y="589"/>
      <point x="416" y="586" type="curve"/>
      <point x="416" y="344" type="line"/>
      <point x="392" y="340"/>
      <point x="366" y="337"/>
    </contour>
  </outline>
</glyph>
<glyph name="ve-cy" format="2">
  <advance width="660"/>
  <unicode hex="0432"/>
  <anchor x="328" y="0" name="bottom"/>
  <anchor x="328" y="703" name="top"/>
  <outline>
    <contour>
      <point x="333" y="-13" type="curve" smooth="yes"/>
      <point x="498" y="-13"/>
      <point x="585" y="53"/>
      <point x="585" y="180" type="curve" smooth="yes"/>
      <point x="585" y="269"/>
      <point x="534" y="325"/>
      <point x="437" y="330" type="curve"/>
      <point x="485" y="237" type="line"/>
      <point x="485" y="383" type="line"/>
      <point x="442" y="303" type="line"/>
      <point x="481" y="304"/>
      <point x="567" y="341"/>
      <point x="567" y="446" type="curve" smooth="yes"/>
      <point x="567" y="549"/>
      <point x="507" y="602"/>
      <point x="321" y="602" type="curve" smooth="yes"/>
      <point x="243" y="602"/>
      <point x="103" y="588"/>
      <point x="103" y="588" type="curve"/>
      <point x="108" y="269" type="line"/>
      <point x="105" y="6" type="line"/>
      <point x="105" y="6"/>
      <point x="239" y="-13"/>
    </contour>
    <contour>
      <point x="325" y="105" type="curve" smooth="yes"/>
      <point x="278" y="105"/>
      <point x="253" y="108"/>
      <point x="224" y="112" type="curve"/>
      <point x="243" y="49" type="line"/>
      <point x="240" y="285" type="line"/>
      <point x="171" y="245" type="line"/>
      <point x="323" y="245" type="line" smooth="yes"/>
      <point x="413" y="245"/>
      <point x="430" y="225"/>
      <point x="430" y="174" type="curve" smooth="yes"/>
      <point x="430" y="117"/>
      <point x="416" y="105"/>
    </contour>
    <contour>
      <point x="331" y="349" type="curve" smooth="yes"/>
      <point x="170" y="349" type="line"/>
      <point x="240" y="314" type="line"/>
      <point x="240" y="545" type="line"/>
      <point x="221" y="479" type="line"/>
      <point x="246" y="482"/>
      <point x="280" y="484"/>
      <point x="324" y="484" type="curve" smooth="yes"/>
      <point x="392" y="484"/>
      <point x="415" y="464"/>
      <point x="415" y="419" type="curve" smooth="yes"/>
      <point x="415" y="373"/>
      <point x="399" y="349"/>
    </contour>
  </outline>
</glyph>
<glyph name="ge-cy" format="2">
  <advance width="552"/>
  <unicode hex="0433"/>
  <outline>
    <contour>
      <point x="175" y="588" type="line"/>
      <point x="173" y="462" type="line"/>
      <point x="497" y="460" type="line"/>
      <point x="497" y="588" type="line"/>
    </contour>
    <contour>
      <point x="101" y="0" type="line"/>
      <point x="256" y="0" type="line"/>
      <point x="256" y="588" type="line"/>
      <point x="101" y="588" type="line"/>
    </contour>
  </outline>
</glyph>
<glyph name="zhe-cy" format="2">
  <advance width="977"/>
  <unicode hex="0436"/>
  <outline>
    <contour>
      <point x="775" y="0" type="line"/>
      <point x="965" y="0" type="line"/>
      <point x="719" y="301" type="line"/>
      <point x="719" y="306" type="line"/>
      <point x="941" y="588" type="line"/>
      <point x="754" y="588" type="line"/>
      <point x="559" y="300" type="line"/>
    </contour>
    <contour>
      <point x="194" y="0" type="line"/>
      <point x="410" y="300" type="line"/>
      <point x="215" y="588" type="line"/>
      <point x="28" y="588" type="line"/>
      <point x="250" y="306" type="line"/>
      <point x="250" y="301" type="line"/>
      <point x="4" y="0" type="line"/>
    </contour>
    <contour>
      <point x="407" y="0" type="line"/>
      <point x="562" y="0" type="line"/>
      <point x="558" y="300" type="line"/>
      <point x="562" y="588" type="line"/>
      <point x="407" y="588" type="line"/>
      <point x="411" y="300" type="line"/>
    </contour>
  </outline>
</glyph>
<glyph name="en-cy" format="2">
  <advance width="706"/>
  <unicode hex="043D"/>
  <outline>
    <contour>
      <point x="236" y="296" type="line"/>
      <point x="240" y="588" type="line"/>
      <point x="85" y="588" type="line"/>
      <point x="85" y="0" type="line"/>
      <point x="240" y="0" type="line"/>
    </contour>
    <contour>
      <point x="470" y="296" type="line"/>
      <point x="466" y="0" type="line"/>
      <point x="621" y="0" type="line"/>
      <point x="621" y="588" type="line"/>
      <point x="466" y="588" type="line"/>
    </contour>
    <contour>
      <point x="539" y="361" type="line"/>
      <point x="167" y="361" type="line"/>
      <point x="167" y="233" type="line"/>
      <point x="539" y="233" type="line"/>
    </contour>
  </outline>
</glyph>
<glyph name="pe-cy" format="2">
  <advance width="674"/>
  <unicode hex="043F"/>
  <outline>
    <contour>
      <point x="153" y="588" type="line"/>
      <point x="151" y="460" type="line"/>
      <point x="525" y="460" type="line"/>
      <point x="525" y="588" type="line"/>
    </contour>
    <contour>
      <point x="79" y="0" type="line"/>
      <point x="234" y="0" type="line"/>
      <point x="234" y="588" type="line"/>
      <point x="79" y="588" type="line"/>
    </contour>
    <contour>
      <point x="79" y="0" type="line"/>
      <point x="234" y="0" type="line"/>
      <point x="234" y="588" type="line"/>
      <point x="79" y="588" type="line"/>
    </contour>
    <contour>
      <point x="595" y="0" type="line"/>
      <point x="595" y="588" type="line"/>
      <point x="440" y="588" type="line"/>
      <point x="440" y="0" type="line"/>
    </contour>
    <contour>
      <point x="595" y="0" type="line"/>
      <point x="595" y="588" type="line"/>
      <point x="440" y="588" type="line"/>
      <point x="440" y="0" type="line"/>
    </contour>
  </outline>
</glyph>
<glyph name="che-cy" format="2">
  <advance width="657"/>
  <unicode hex="0447"/>
  <outline>
    <contour>
      <point x="583" y="588" type="line"/>
      <point x="428" y="588" type="line"/>
      <point x="428" y="339" type="line"/>
      <point x="428" y="339"/>
      <point x="344" y="303"/>
      <point x="286" y="303" type="curve" smooth="yes"/>
      <point x="250" y="303"/>
      <point x="234" y="309"/>
      <point x="227" y="318" type="curve" smooth="yes"/>
      <point x="217" y="331"/>
      <point x="211" y="361"/>
      <point x="211" y="413" type="curve" smooth="yes"/>
      <point x="211" y="588" type="line"/>
      <point x="56" y="588" type="line"/>
      <point x="56" y="386" type="line" smooth="yes"/>
      <point x="56" y="263"/>
      <point x="85" y="168"/>
      <point x="207" y="168" type="curve" smooth="yes"/>
      <point x="316" y="168"/>
      <point x="388" y="200"/>
      <point x="428" y="220" type="curve"/>
      <point x="428" y="0" type="line"/>
      <point x="583" y="0" type="line"/>
    </contour>
  </outline>
</glyph>
<glyph name="sha-cy" format="2">
  <advance width="989"/>
  <unicode hex="0448"/>
  <outline>
    <contour>
      <point x="451" y="0" type="line"/>
      <point x="866" y="0" type="line"/>
      <point x="866" y="128" type="line"/>
      <point x="449" y="126" type="line"/>
    </contour>
    <contour>
      <point x="906" y="588" type="line"/>
      <point x="751" y="588" type="line"/>
      <point x="751" y="0" type="line"/>
      <point x="906" y="0" type="line"/>
    </contour>
    <contour>
      <point x="117" y="0" type="line"/>
      <point x="532" y="0" type="line"/>
      <point x="532" y="128" type="line"/>
      <point x="115" y="126" type="line"/>
    </contour>
    <contour>
      <point x="83" y="588" type="line"/>
      <point x="83" y="0" type="line"/>
      <point x="238" y="0" type="line"/>
      <point x="238" y="588" type="line"/>
    </contour>
    <contour>
      <point x="572" y="588" type="line"/>
      <point x="417" y="588" type="line"/>
      <point x="417" y="0" type="line"/>
      <point x="572" y="0" type="line"/>
    </contour>
  </outline>
</glyph>
<glyph name="shcha-cy" format="2">
  <advance width="983"/>
  <unicode hex="0449"/>
  <outline>
    <contour>
      <point x="442" y="0" type="line"/>
      <point x="857" y="0" type="line"/>
      <point x="857" y="130" type="line"/>
      <point x="440" y="128" type="line"/>
    </contour>
    <contour>
      <point x="897" y="588" type="line"/>
      <point x="742" y="588" type="line"/>
      <point x="742" y="0" type="line"/>
      <point x="897" y="0" type="line"/>
    </contour>
    <contour>
      <point x="108" y="0" type="line"/>
      <point x="523" y="0" type="line"/>
      <point x="523" y="130" type="line"/>
      <point x="106" y="128" type="line"/>
    </contour>
    <contour>
      <point x="74" y="588" type="line"/>
      <point x="74" y="0" type="line"/>
      <point x="229" y="0" type="line"/>
      <point x="229" y="588" type="line"/>
    </contour>
    <contour>
      <point x="563" y="588" type="line"/>
      <point x="408" y="588" type="line"/>
      <point x="408" y="0" type="line"/>
      <point x="563" y="0" type="line"/>
    </contour>
    <contour>
      <point x="839" y="-155" type="line"/>
      <point x="979" y="-155" type="line"/>
      <point x="979" y="74" type="line"/>
      <point x="819" y="74" type="line"/>
    </contour>
  </outline>
</glyph>
<glyph name="yeru-cy" format="2">
  <advance width="929"/>
  <unicode hex="044B"/>
  <outline>
    <contour>
      <point x="700" y="0" type="line"/>
      <point x="855" y="0" type="line"/>
      <point x="850" y="322" type="line"/>
      <point x="855" y="588" type="line"/>
      <point x="700" y="588" type="line"/>
      <point x="705" y="304" type="line"/>
    </contour>
    <component base="softsign-cy" xOffset="5"/>
  </outline>
</glyph>
<glyph name="softsign-cy" format="2">
  <advance width="632"/>
  <unicode hex="044C"/>
  <anchor x="312" y="0" name="bottom"/>
  <anchor x="312" y="761" name="top"/>
  <outline>
    <contour>
      <point x="338" y="-13" type="curve" smooth="yes"/>
      <point x="466" y="-13"/>
      <point x="589" y="46"/>
      <point x="589" y="204" type="curve" smooth="yes"/>
      <point x="589" y="327"/>
      <point x="506" y="415"/>
      <point x="371" y="415" type="curve" smooth="yes"/>
      <point x="302" y="415"/>
      <point x="229" y="400"/>
      <point x="229" y="400" type="curve"/>
      <point x="229" y="588" type="line"/>
      <point x="74" y="588" type="line"/>
      <point x="74" y="31" type="line"/>
      <point x="149" y="8"/>
      <point x="269" y="-13"/>
    </contour>
    <contour>
      <point x="328" y="124" type="curve" smooth="yes"/>
      <point x="281" y="124"/>
      <point x="229" y="134"/>
      <point x="229" y="134" type="curve"/>
      <point x="229" y="268" type="line"/>
      <point x="229" y="268"/>
      <point x="280" y="281"/>
      <point x="335" y="281" type="curve" smooth="yes"/>
      <point x="381" y="281"/>
      <point x="402" y="274"/>
      <point x="412" y="264" type="curve" smooth="yes"/>
      <point x="428" y="248"/>
      <point x="431" y="221"/>
      <point x="431" y="206" type="curve" smooth="yes"/>
      <point x="431" y="182"/>
      <point x="423" y="151"/>
      <point x="406" y="137" type="curve" smooth="yes"/>
      <point x="395" y="128"/>
      <point x="369" y="124"/>
    </contour>
  </outline>
</glyph>
<glyph name="e-cy" format="2">
  <advance width="551"/>
  <unicode hex="0454"/>
  <outline>
    <contour>
      <point x="135" y="365" type="line"/>
      <point x="133" y="244" type="line"/>
      <point x="457" y="242" type="line"/>
      <point x="457" y="365" type="line"/>
    </contour>
    <component base="c"/>
  </outline>
</glyph>
<glyph name="lje-cy" format="2">
  <advance width="992"/>
  <unicode hex="0459"/>
  <outline>
    <contour>
      <point x="535" y="588" type="line"/>
      <point x="214" y="588" type="line"/>
      <point x="214" y="460" type="line"/>
      <point x="537" y="460" type="line"/>
    </contour>
    <contour>
      <point x="37" y="-7" type="line"/>
      <point x="59" y="-11"/>
      <point x="83" y="-13"/>
      <point x="108" y="-13" type="curve" smooth="yes"/>
      <point x="209" y="-13"/>
      <point x="269" y="51"/>
      <point x="278" y="169" type="curve" smooth="yes"/>
      <point x="310" y="588" type="line"/>
      <point x="158" y="588" type="line"/>
      <point x="126" y="223" type="line" smooth="yes"/>
      <point x="121" y="166"/>
      <point x="119" y="139"/>
      <point x="87" y="124" type="curve" smooth="yes"/>
      <point x="64" y="113"/>
      <point x="38" y="110"/>
      <point x="11" y="111" type="curve"/>
    </contour>
    <component base="softsign-cy" xOffset="355"/>
  </outline>
</glyph>
<glyph name="nje-cy" format="2">
  <advance width="974"/>
  <unicode hex="045A"/>
  <outline>
    <contour>
      <point x="225" y="294" type="line"/>
      <point x="229" y="588" type="line"/>
      <point x="74" y="588" type="line"/>
      <point x="74" y="0" type="line"/>
      <point x="229" y="0" type="line"/>
    </contour>
    <contour>
      <point x="528" y="371" type="line"/>
      <point x="156" y="371" type="line"/>
      <point x="156" y="243" type="line"/>
      <point x="528" y="243" type="line"/>
    </contour>
    <component base="softsign-cy" xOffset="337"/>
  </outline>
</glyph>
<glyph name="dzhe-cy" format="2">
  <advance width="655"/>
  <unicode hex="045F"/>
  <outline>
    <contour>
      <point x="117" y="0" type="line"/>
      <point x="532" y="0" type="line"/>
      <point x="532" y="130" type="line"/>
      <point x="115" y="128" type="line"/>
    </contour>
    <contour>
      <point x="83" y="588" type="line"/>
      <point x="83" y="0" type="line"/>
      <point x="238" y="0" type="line"/>
      <point x="238" y="588" type="line"/>
    </contour>
    <contour>
      <point x="572" y="588" type="line"/>
      <point x="417" y="588" type="line"/>
      <point x="417" y="0" type="line"/>
      <point x="572" y="0" type="line"/>
    </contour>
    <contour>
      <point x="272" y="-155" type="line"/>
      <point x="412" y="-155" type="line"/>
      <point x="412" y="74" type="line"/>
      <point x="252" y="74" type="line"/>
    </contour>
  </outline>
</glyph>
<glyph name="Gheupturn-cy" format="2">
  <advance width="510"/>
  <unicode hex="0490"/>
  <outline>
    <contour>
      <point x="335" y="571" type="line"/>
      <point x="388" y="817" type="line"/>
      <point x="505" y="817" type="line"/>
      <point x="505" y="569" type="line"/>
    </contour>
    <component base="Ge-cy"/>
  </outline>
</glyph>
<glyph name="gheupturn-cy" format="2">
  <advance width="532"/>
  <unicode hex="0491"/>
  <outline>
    <contour>
      <point x="377" y="692" type="line"/>
      <point x="357" y="517" type="line"/>
      <point x="497" y="517" type="line"/>
      <point x="497" y="692" type="line"/>
    </contour>
    <component base="ge-cy"/>
  </outline>
</glyph>
<glyph name="Zhedescender-cy" format="2">
  <advance width="969"/>
  <unicode hex="0496"/>
  <guideline x="993"/>
  <outline>
    <contour>
      <point x="888" y="-156" type="line"/>
      <point x="1001" y="-156" type="line"/>
      <point x="1001" y="74" type="line"/>
      <point x="861" y="74" type="line"/>
    </contour>
    <component base="Zhe-cy" xOffset="-25"/>
  </outline>
</glyph>
<glyph name="Kadescender-cy" format="2">
  <advance width="657"/>
  <unicode hex="049A"/>
  <outline>
    <contour>
      <point x="576" y="-156" type="line"/>
      <point x="689" y="-156" type="line"/>
      <point x="689" y="74" type="line"/>
      <point x="549" y="74" type="line"/>
    </contour>
    <component base="Ka-cy"/>
  </outline>
</glyph>
<glyph name="Ustraitstroke-cy" format="2">
  <advance width="596"/>
  <unicode hex="04B0"/>
  <outline>
    <contour>
      <point x="51" y="362" type="line"/>
      <point x="51" y="250" type="line"/>
      <point x="303" y="253" type="line"/>
      <point x="536" y="250" type="line"/>
      <point x="536" y="362" type="line"/>
    </contour>
    <component base="Y" xOffset="9"/>
  </outline>
</glyph>
<glyph name="ustraitstroke-cy" format="2">
  <advance width="535"/>
  <unicode hex="04B1"/>
  <outline>
    <contour>
      <point x="178" y="-166" type="line"/>
      <point x="339" y="-166" type="line"/>
      <point x="333" y="98" type="line"/>
      <point x="311" y="-34" type="line"/>
      <point x="535" y="588" type="line"/>
      <point x="376" y="588" type="line"/>
      <point x="253" y="128" type="line"/>
      <point x="341" y="195" type="line"/>
      <point x="195" y="195" type="line"/>
      <point x="283" y="128" type="line"/>
      <point x="162" y="588" type="line"/>
      <point x="-10" y="588" type="line"/>
      <point x="203" y="-34" type="line"/>
      <point x="184" y="98" type="line"/>
    </contour>
    <contour>
      <point x="3" y="25" type="line"/>
      <point x="239" y="26" type="line"/>
      <point x="513" y="25" type="line"/>
      <point x="513" y="141" type="line"/>
      <point x="3" y="141" type="line"/>
    </contour>
  </outline>
</glyph>
<glyph name="hadescender-cy" format="2">
  <advance width="600"/>
  <unicode hex="04B3"/>
  <outline>
    <contour>
      <point x="482" y="-155" type="line"/>
      <point x="609" y="-155" type="line"/>
      <point x="609" y="74" type="line"/>
      <point x="462" y="74" type="line"/>
    </contour>
    <component base="x"/>
  </outline>
</glyph>
<glyph name="Obarred-cy" format="2">
  <advance width="700"/>
  <unicode hex="04E8"/>
  <outline>
    <contour>
      <point x="158" y="414" type="line"/>
      <point x="158" y="286" type="line"/>
      <point x="526" y="286" type="line"/>
      <point x="525" y="414" type="line"/>
    </contour>
    <component base="O"/>
  </outline>
</glyph>
<glyph name="quotesinglbase" format="2">
  <advance width="239"/>
  <unicode hex="201A"/>
  <outline>
    <contour>
      <point x="121" y="-167" type="line"/>
      <point x="159" y="-130"/>
      <point x="195" y="-54"/>
      <point x="195" y="57" type="curve" smooth="yes"/>
      <point x="195" y="93"/>
      <point x="190" y="132"/>
      <point x="190" y="132" type="curve"/>
      <point x="62" y="132" type="line"/>
      <point x="62" y="132"/>
      <point x="68" y="52"/>
      <point x="68" y="9" type="curve" smooth="yes"/>
      <point x="68" y="-50"/>
      <point x="60" y="-91"/>
      <point x="44" y="-121" type="curve"/>
    </contour>
  </outline>
</glyph>
<glyph name="quotedblbase" format="2">
  <advance width="494"/>
  <unicode hex="201E"/>
  <outline>
    <contour>
      <point x="347" y="-171" type="line"/>
      <point x="385" y="-134"/>
      <point x="421" y="-58"/>
      <point x="421" y="53" type="curve" smooth="yes"/>
      <point x="421" y="89"/>
      <point x="417" y="132"/>
      <point x="417" y="132" type="curve"/>
      <point x="289" y="132" type="line"/>
      <point x="289" y="132"/>
      <point x="294" y="48"/>
      <point x="294" y="5" type="curve" smooth="yes"/>
      <point x="294" y="-54"/>
      <point x="286" y="-95"/>
      <point x="270" y="-125" type="curve"/>
    </contour>
    <contour>
      <point x="116" y="-167" type="line"/>
      <point x="154" y="-130"/>
      <point x="191" y="-54"/>
      <point x="191" y="57" type="curve" smooth="yes"/>
      <point x="191" y="93"/>
      <point x="186" y="132"/>
      <point x="186" y="132" type="curve"/>
      <point x="58" y="132" type="line"/>
      <point x="58" y="132"/>
      <point x="64" y="49"/>
      <point x="64" y="6" type="curve" smooth="yes"/>
      <point x="64" y="-53"/>
      <point x="56" y="-94"/>
      <point x="40" y="-124" type="curve"/>
    </contour>
  </outline>
</glyph>
<glyph name="guilsinglright" format="2">
  <advance width="312"/>
  <unicode hex="203A"/>
  <outline>
    <contour>
      <point x="135" y="78" type="line"/>
      <point x="294" y="345" type="line"/>
      <point x="135" y="612" type="line"/>
      <point x="17" y="542" type="line"/>
      <point x="140" y="348" type="line"/>
      <point x="140" y="342" type="line"/>
      <point x="17" y="148" type="line"/>
    </contour>
  </outline>
</glyph>
<glyph name="horncomb.case" format="2">
  <outline>
    <contour>
      <point x="-30" y="624" type="line"/>
      <point x="-17" y="535" type="line"/>
      <point x="46" y="535" type="line" smooth="yes"/>
      <point x="130" y="535"/>
      <point x="203" y="578"/>
      <point x="203" y="682" type="curve" smooth="yes"/>
      <point x="203" y="700"/>
      <point x="197" y="728"/>
      <point x="188" y="761" type="curve"/>
      <point x="65" y="761" type="line"/>
      <point x="79" y="695"/>
      <point x="83" y="674"/>
      <point x="83" y="654" type="curve" smooth="yes"/>
      <point x="83" y="629"/>
      <point x="78" y="623"/>
      <point x="56" y="623" type="curve" smooth="yes"/>
    </contour>
  </outline>
</glyph>
<glyph name="ringcomb.case" format="2">
  <anchor x="107" y="703" name="_top"/>
  <anchor x="107" y="885" name="top"/>
  <outline>
    <contour>
      <point x="107" y="733" type="curve" smooth="yes"/>
      <point x="160" y="733"/>
      <point x="213" y="754"/>
      <point x="213" y="827" type="curve" smooth="yes"/>
      <point x="213" y="902"/>
      <point x="160" y="922"/>
      <point x="107" y="922" type="curve" smooth="yes"/>
      <point x="55" y="922"/>
      <point x="0" y="902"/>
      <point x="0" y="827" type="curve" smooth="yes"/>
      <point x="0" y="754"/>
      <point x="55" y="733"/>
    </contour>
    <contour>
      <point x="107" y="797" type="curve" smooth="yes"/>
      <point x="82" y="797"/>
      <point x="71" y="804"/>
      <point x="71" y="827" type="curve" smooth="yes"/>
      <point x="71" y="852"/>
      <point x="82" y="857"/>
      <point x="107" y="857" type="curve" smooth="yes"/>
      <point x="132" y="857"/>
      <point x="142" y="852"/>
      <point x="142" y="827" type="curve" smooth="yes"/>
      <point x="142" y="804"/>
      <point x="132" y="797"/>
    </contour>
  </outline>
</glyph>
